<svg xmlns="http://www.w3.org/2000/svg" xmlns:xlink="http://www.w3.org/1999/xlink" version="1.1" width="256" height="256" viewBox="0 0 256 256" xml:space="preserve">

<defs>
</defs>
<g style="stroke: none; stroke-width: 0; stroke-dasharray: none; stroke-linecap: butt; stroke-linejoin: miter; stroke-miterlimit: 10; fill: none; fill-rule: nonzero; opacity: 1;" transform="translate(1.4065934065934016 1.4065934065934016) scale(2.81 2.81)" >
	<path d="M 77.389 90 c 2.143 0 3.881 -1.738 3.881 -3.881 v -6.047 c 0 -13.352 -8.896 -24.721 -21.054 -28.486 c -2.775 -0.859 -4.675 -3.413 -4.675 -6.319 v 0 c 0 -1.777 0.723 -3.472 1.989 -4.72 c 3.277 -3.231 5.314 -7.713 5.314 -12.679 l 0 -9.596 c 0 -9.676 -7.524 -17.917 -17.194 -18.261 C 35.499 -0.349 27.155 7.773 27.155 17.845 v 10.024 c 0 4.966 2.037 9.448 5.314 12.679 c 1.266 1.248 1.989 2.942 1.989 4.72 v 0 c 0 2.905 -1.899 5.459 -4.675 6.319 C 17.627 55.351 8.73 66.72 8.73 80.072 v 6.047 c 0 2.143 1.738 3.881 3.881 3.881 H 77.389 z" style="stroke: none; stroke-width: 1; stroke-dasharray: none; stroke-linecap: butt; stroke-linejoin: miter; stroke-miterlimit: 10; fill: rgb(0,0,0); fill-rule: nonzero; opacity: 1;" transform=" matrix(1 0 0 1 0 0) " stroke-linecap="round" />
</g>
</svg>