<?xml version="1.0" encoding="UTF-8" standalone="no"?>
<svg
   version="1.1"
   width="2"
   height="2"
   viewBox="0 0 2 2"
   xml:space="preserve"
   id="svg900"
   xmlns="http://www.w3.org/2000/svg"
   xmlns:svg="http://www.w3.org/2000/svg">

<defs
   id="defs894">

	
</defs>
<path
   d="m 0.74939514,0.91898976 c 0.045779,0 0.082908,-0.037128 0.082908,-0.082908 v -0.129179 c 0,-0.2852292 -0.1900392,-0.5280976 -0.4497623,-0.6085268 -0.059281,-0.01835 -0.099869,-0.07291 -0.099869,-0.1349886 v 0 c 0,-0.0379606 0.015444,-0.0741699 0.04249,-0.10083023 0.070004,-0.0690216 0.1135192,-0.16476757 0.1135192,-0.27085268 v -0.20499123 c -4e-7,-0.20670175 -0.1607303,-0.38274853 -0.3673039,-0.39009732 -0.2168494,-0.00769 -0.39509643,0.16581451 -0.39509643,0.38097578 v 0.2141354 c 0,0.10608566 0.0435146,0.2018315 0.1135192,0.27085317 0.0270447,0.0266597 0.0424897,0.0628479 0.0424897,0.10083021 v 0 c 0,0.062057 -0.0405673,0.1166168 -0.0998687,0.1349882 -0.25968036,0.080408 -0.44974094,0.3232763 -0.44974094,0.6085056 v 0.1291787 c 0,0.045779 0.0371278,0.082908 0.0829071,0.082908 z"
   style="fill:#000000;fill-rule:nonzero;stroke:none;stroke-width:0.0213624;stroke-linecap:butt;stroke-linejoin:miter;stroke-miterlimit:10;stroke-dasharray:none"
   stroke-linecap="round"
   id="path896" />
</svg>
