<?xml version="1.0" encoding="UTF-8" standalone="no"?>
<!-- Created with Inkscape (http://www.inkscape.org/) -->

<svg
   width="186.43007mm"
   height="227.64011mm"
   viewBox="0 0 186.43007 227.64011"
   version="1.1"
   id="svg6991"
   sodipodi:docname="map-reduced.svg"
   inkscape:version="1.1.2 (0a00cf5339, 2022-02-04)"
   xmlns:inkscape="http://www.inkscape.org/namespaces/inkscape"
   xmlns:sodipodi="http://sodipodi.sourceforge.net/DTD/sodipodi-0.dtd"
   xmlns="http://www.w3.org/2000/svg"
   xmlns:svg="http://www.w3.org/2000/svg">
  <sodipodi:namedview
     id="namedview6993"
     pagecolor="#ffffff"
     bordercolor="#999999"
     borderopacity="1"
     inkscape:pageshadow="0"
     inkscape:pageopacity="0"
     inkscape:pagecheckerboard="0"
     inkscape:document-units="mm"
     showgrid="false"
     inkscape:zoom="0.67615088"
     inkscape:cx="518.37543"
     inkscape:cy="423.722"
     inkscape:window-width="1920"
     inkscape:window-height="1016"
     inkscape:window-x="0"
     inkscape:window-y="27"
     inkscape:window-maximized="1"
     inkscape:current-layer="layer1" />
  <defs
     id="defs6988" />
  <g
     inkscape:label="Layer 1"
     inkscape:groupmode="layer"
     id="layer1"
     transform="translate(-23.541419,-20.698909)">
    <rect
       style="fill:#99dcff;fill-opacity:1;stroke:none;stroke-width:0.134271;stroke-miterlimit:10"
       id="rect8081"
       width="180.08682"
       height="156.94908"
       x="29.884672"
       y="91.389938" />
    <path
       d="m 23.541419,75.699103 c 1.511534,0.340302 2.895176,1.082776 4.374843,1.526353 1.762208,0.528301 3.179139,-0.01714 4.936119,-0.05188 0.624511,-0.01238 1.151035,0.240352 1.756018,0.328878 0.621666,0.0909 1.053512,-0.350297 1.599065,-0.548763 0.719152,-0.261771 1.393136,0.03425 2.110367,-0.0027 0.605021,-0.03095 1.176253,-0.340779 1.764129,-0.476421 0.682518,-0.157539 2.008575,-0.271289 2.44142,-0.911911 0.258746,-0.382183 -0.357193,-0.589694 -0.284924,-0.95998 0.17506,-0.899536 -0.240179,-1.62535 -0.154571,-2.501565 0.08753,-0.888115 0.260668,-0.687742 0.783849,-1.213187 0.322019,-0.322688 0.401899,-0.860983 0.829016,-1.084198 0.446145,-0.23369 0.597871,0.239398 1.029755,0.289371 0.735797,0.08567 1.386448,-0.14897 2.030448,-0.493077 -0.265396,-0.277478 -0.745754,-0.295088 -0.856117,-0.719629 0.632583,-0.01142 1.287039,-0.408838 1.624743,-0.926664 0.399554,-0.612064 1.392675,0.428827 1.423581,-0.341252 0.471363,0.221789 0.668257,0.11708 0.956487,0.609208 0.243062,0.4155 0.624511,0.273668 0.958869,0.02237 0.895135,-0.673461 0.67114,-1.916152 0.313448,-2.805217 -0.229262,-0.570659 0.218305,-0.659661 0.340086,-1.150836 0.09464,-0.383609 0.10652,-0.966642 -0.03037,-1.341687 -0.163643,-0.44596 0.307258,-0.524015 0.622589,-0.594458 0.522258,-0.117079 0.797648,0.05902 1.2747,-0.323165 0.581226,-0.465473 0.565043,-0.489271 0.326747,-1.064689 -0.199277,-0.480704 -0.479896,-1.009478 -0.93223,-1.295043 -0.886562,-0.560665 -1.023566,-1.365963 0.216422,-1.027568 0.844701,0.230357 2.889449,0.503553 3.119671,-0.699636 0.06846,-0.355055 0.06608,-0.621109 -0.210733,-0.86146 -0.118436,-0.102807 -0.65065,-0.447391 -0.548859,-0.659661 0.0913,-0.09376 0.206428,-0.132791 0.344354,-0.117084 -0.160299,-0.340774 0.118898,-0.602545 0.306797,-0.840995 0.173599,-0.219886 0.787154,-0.722481 0.787154,-0.992344 0.0038,-0.256059 0.08561,-0.48356 0.246867,-0.68203 0.124126,-0.175621 -0.308219,-0.353625 -0.365765,-0.46595 -0.04993,-0.124694 -0.01768,-0.217029 0.09845,-0.276524 0.191205,-0.2018 -0.136503,-0.610634 -0.191205,-0.800063 -0.07373,-0.252249 -0.507958,-0.850989 -0.681095,-1.068495 -0.24829,-0.312694 -0.653534,-0.523062 -0.954603,-0.782453 -0.40855,-0.3522 0.819983,-1.859041 1.216654,-1.735296 0.545553,0.169913 0.586454,-0.426444 0.909896,-0.753418 0.34247,-0.346014 0.787654,-0.568279 1.247561,-0.713444 0.987893,-0.311744 2.045248,-0.3146 3.070198,-0.354579 0.519413,-0.01999 1.243332,-0.291278 1.722767,-0.05093 0.470862,0.235593 0.506997,0.366953 0.941725,0.04426 0.595488,-0.442628 2.077077,-1.179867 2.498504,-0.157062 0.423312,-0.760084 1.521068,-0.135647 1.85685,0.38028 0.309641,0.476894 1.167219,0.216553 1.666143,0.682026 0.353887,0.330307 0.584571,0.705829 0.706775,1.173681 0.08945,0.339349 0.05612,0.921429 0.187899,1.212707 0.143154,0.317933 0.871839,0.75009 1.143886,0.994727 0.350542,0.31555 0.822366,-0.212747 1.149113,-0.29699 0.06516,1.479713 3.607217,2.10653 4.66119,1.644867 -0.332937,0.291751 -2.375763,1.299802 -2.194553,1.848569 0.07135,0.216553 -0.14127,0.686788 -0.418544,0.501646 -0.331053,-0.220363 -0.394327,0.349819 -0.48374,0.593977 -0.09368,0.257962 -2.137968,0.581607 -2.536062,0.781027 -1.119629,0.562091 -1.912511,0.09995 -3.136777,-0.153729 -0.988854,-0.205132 -2.321561,-0.85004 -3.279969,-0.258915 -0.652535,0.402173 -1.023528,1.342641 -0.197356,1.690081 0.755748,0.31793 -0.292535,0.834329 0.332937,1.033749 0.206427,0.06568 1.592875,0.07425 1.050166,0.609688 -0.491774,0.485939 -1.107251,0.680123 -0.230184,1.299329 0.733414,0.518779 -0.122242,1.216512 0.362882,1.736722 0.277774,0.29794 0.585993,0.446913 0.904669,0.686312 0.144576,0.09471 0.228761,0.227501 0.253517,0.398367 0.03767,0.481656 0.134582,0.372665 0.645884,0.484513 0.874223,0.190374 0.554126,1.135601 1.510151,1.322647 0.519875,0.101853 1.385986,0.144211 1.756018,0.580654 0.455179,0.536865 -0.991698,1.06088 -1.283234,1.19605 -0.743408,0.345061 -1.516339,0.949032 -0.841394,1.780509 0.444723,0.547814 -0.269701,2.011343 0.76482,2.031809 -0.161721,0.379804 -1.101562,0.623965 -1.200509,1.096577 -0.136965,0.654898 -1.430232,1.534921 -0.856117,2.09035 0.825672,0.800063 -0.985048,1.162734 -1.370803,1.419742 -0.381449,0.253679 -0.292035,0.884305 -0.356231,1.275533 -0.108904,0.663944 -0.288692,1.3474 -0.587877,1.952802 -0.445684,0.900486 -1.378375,1.089438 -2.010959,1.780032 -0.25494,0.277951 -0.342931,0.63634 -0.375298,1.003293 -0.05755,0.647759 -0.614978,1.02423 -0.8447,1.595843 -0.488969,1.214132 -1.201471,0.908577 -2.355812,1.216988 -0.393328,0.105186 -0.83805,0.509738 -1.261861,0.46833 -0.508919,-0.0495 -0.740064,-0.664417 -0.992621,-1.019472 -0.593604,-0.831953 -1.476861,0.43073 -1.707506,0.950939 -0.408589,0.922378 -1.076845,1.713399 -1.4483,2.620074 -0.457562,1.116566 0.172638,1.741008 1.238066,2.008964 0.993582,0.249397 1.483012,0.301273 1.388832,1.518738 -0.05328,0.695834 -0.184555,2.252648 1.009304,2.265499 0.343854,0.0038 0.741025,-0.246541 1.045438,0.03045 0.302492,0.275095 0.05847,1.024235 0.326748,1.409274 0.550281,0.791494 1.15957,1.383569 1.418815,2.359733 0.09941,0.374092 0.313409,0.262244 -0.0509,0.523062 -0.290613,0.207988 0.186439,0.900966 0.431384,0.950462 -0.645922,0.488795 -1.322251,1.100863 -1.869688,0.18562 -0.254479,-0.425495 -0.642117,-0.107089 -0.963175,0.02141 -0.161222,0.04521 -0.320098,0.09899 -0.476091,0.160391 -0.259245,0.133267 -0.0956,0.455955 -0.374799,0.574941 -0.921774,0.390275 -1.956757,-0.499266 -2.923238,-0.446437 -0.51653,0.02856 -1.202854,0.119463 -1.68325,-0.118986 0.02922,0.379331 0.367188,1.439258 -0.319636,1.439258 -0.582149,0 -1.469211,0.0143 -1.425926,0.822438 -0.03856,-0.46833 -0.0956,-0.45691 -0.171255,0.0343 -0.2283,-0.19894 -0.379527,-0.47214 -0.546475,-0.71963 0.122703,0.21513 0.155993,0.44406 0.09987,0.68489 -0.251596,-0.15564 -0.468479,-0.34982 -0.651612,-0.58256 0.155994,0.6273 -0.340086,0.27367 -0.718191,0.47975 0,-0.18276 0,-0.366 0,-0.54828 -0.417122,0.29937 -0.949836,-0.266062 -0.475629,-0.547822 -0.558892,0.105186 -1.346046,-0.709158 -0.756248,-1.165113 -0.652111,-0.374568 -0.301569,-1.454011 -0.840472,-1.72387 -0.30203,-0.1504 -1.830209,-0.21608 -1.786463,-0.704399 0.08657,-0.988062 -0.137926,-1.279817 -0.626856,-2.06132 -0.363882,-0.5797 -1.453566,-1.176057 -1.640965,-0.136596 0.588838,-0.02998 0.981242,-0.553522 1.298495,0.239879 -0.628316,-0.405505 -1.333207,-0.155636 -1.980052,0.04855 -0.674446,0.212747 -1.320368,-0.02237 -1.960563,0.170385 -0.347698,0.10471 -2.773857,0.07139 -2.152229,0.740572 -0.283002,0.08472 -0.467556,-0.04902 -0.480396,-0.342681 -0.937919,0.485466 -1.68325,-0.918096 -2.192169,-0.685359 0.078,0.115176 0.156954,0.229403 0.237796,0.343154 -0.473246,0.09662 -2.409514,-0.525441 -1.916779,0.616826 -0.493235,-0.250823 -4.196977,-0.525444 -3.871652,0.410741 -0.249212,-0.01046 -0.442301,-0.372665 -0.644461,-0.487845 -0.349582,-0.19942 -0.351504,0.270812 -0.565543,0.395987 -0.860384,0.501646 -1.4892,-0.06806 -1.460177,-0.829097 0.03902,-1.025661 -0.204044,-4.733747 1.781236,-4.287309 -0.582149,-1.529687 2.937999,-0.701066 3.109676,-1.540635 0.07515,-0.366476 0.209772,-1.762423 0.05374,-1.886168 -0.37526,-0.297944 -0.871339,-0.08186 -1.295612,-0.108991 -0.608327,-0.03855 -0.517491,-1.041368 -0.532214,-1.452586 -0.02845,-0.791494 -0.277774,-1.80859 -0.526525,-2.565818 -0.115092,-0.350296 -0.731991,-0.372189 -1.040672,-0.563517 -0.512263,-0.316503 -1.038788,-0.507835 -1.581497,-0.759607 -1.203815,-0.557808 -1.698934,-1.373578 -2.309183,-2.486815 -0.649228,-1.18082 -1.687555,-2.120334 -2.624052,-3.064131"
       style="display:inline;fill:#ffffff;fill-opacity:1;stroke:none;stroke-width:0.384409"
       id="path7712"
       inkscape:connector-curvature="0" />
    <path
       d="m 155.41964,174.80224 c 0.51561,0.1623 0.25021,-0.49403 -0.2378,-0.34316 0.0794,0.11471 0.15838,0.22893 0.2378,0.34316"
       style="display:inline;fill:#ffffff;fill-opacity:1;stroke:none;stroke-width:0.384409"
       id="path7718"
       inkscape:connector-curvature="0" />
    <path
       d="m 159.63422,188.8864 c 0.14935,0.10423 0.69013,0.16135 0.60595,-0.20132 -0.0404,-0.17515 -0.63355,-0.53973 -0.77432,-0.68156 -0.17598,-0.17705 -0.38668,-0.33792 -0.65495,-0.28223 0.1365,-0.38076 -0.38572,-0.66871 -0.65162,-0.78817 -0.13934,-0.0628 -0.25351,-0.34744 -0.43995,-0.19418 -0.34532,0.28366 -0.33817,0.57018 0.006,0.86907 0.57312,0.49879 1.5805,0.50355 1.90917,1.27839"
       style="display:inline;fill:#ffffff;fill-opacity:1;stroke:none;stroke-width:0.384409"
       id="path7722"
       inkscape:connector-curvature="0" />
    <path
       d="m 164.73729,196.11695 c 0.71058,0.76009 0.95649,-1.3593 0.64112,-1.78907 -0.37192,-0.50593 -0.96552,-1.46163 -1.55294,-1.71626 -0.43423,-0.18847 -0.68348,0.42454 -1.14292,0.14659 0.0728,0.63872 0.63831,1.11038 0.91178,1.66057 0.16979,0.34125 0.56412,0.45929 0.76289,0.77484 0.18029,0.287 0.21312,0.6311 0.38007,0.92333"
       style="display:inline;fill:#ffffff;fill-opacity:1;stroke:none;stroke-width:0.384409"
       id="path7724"
       inkscape:connector-curvature="0" />
    <path
       d="m 163.40124,190.22285 c -0.006,-0.34268 -0.25829,-0.90762 -0.68494,-0.58255 0.25782,0.15896 0.48612,0.35315 0.68494,0.58255"
       style="display:inline;fill:#ffffff;fill-opacity:1;stroke:none;stroke-width:0.384409"
       id="path7726"
       inkscape:connector-curvature="0" />
    <path
       d="m 167.6819,200.60559 c 0.0908,-0.30365 -0.0277,-0.60302 -0.27585,-0.79007 -0.18882,0.25749 -0.32771,0.65442 -0.40144,0.96284 -0.0985,0.41312 0.81379,0.42882 0.67729,-0.17277"
       style="display:inline;fill:#ffffff;fill-opacity:1;stroke:none;stroke-width:0.384409"
       id="path7728"
       inkscape:connector-curvature="0" />
    <path
       d="m 167.06312,198.65421 c 0.17929,0.50831 0.44757,0.97426 0.71865,1.43783 0.11655,-0.3798 -0.18359,-1.49922 -0.71865,-1.43783"
       style="display:inline;fill:#ffffff;fill-opacity:1;stroke:none;stroke-width:0.384409"
       id="path7730"
       inkscape:connector-curvature="0" />
    <path
       d="m 167.91973,191.97052 c 0.0509,-0.26748 -0.0633,-0.26748 -0.34293,0 0.11413,0 0.2283,0 0.34293,0"
       style="display:inline;fill:#ffffff;fill-opacity:1;stroke:none;stroke-width:0.384409"
       id="path7732"
       inkscape:connector-curvature="0" />
    <path
       d="m 168.80868,198.27822 c -0.0932,-0.4531 -0.80907,-0.38076 -1.0602,-0.1385 0.31775,0.2118 0.6987,0.23749 1.0602,0.1385"
       style="display:inline;fill:#ffffff;fill-opacity:1;stroke:none;stroke-width:0.384409"
       id="path7734"
       inkscape:connector-curvature="0" />
    <path
       d="m 169.87407,206.08847 c 1.42074,-0.20037 -0.79334,-2.97322 -0.75625,-3.63145 -0.23353,0.12802 -0.62924,0.0657 -0.79476,0.29746 -0.23784,0.33364 -0.38956,0.97569 -0.13651,1.3336 0.4799,0.67679 0.75817,1.8005 1.68752,2.00039"
       style="display:inline;fill:#ffffff;fill-opacity:1;stroke:none;stroke-width:0.384409"
       id="path7736"
       inkscape:connector-curvature="0" />
    <path
       d="m 172.50908,208.45344 c -0.089,-0.36695 -0.55647,-1.65867 -1.06016,-1.31456 -0.55555,0.38028 0.80714,1.16369 1.06016,1.31456"
       style="display:inline;fill:#ffffff;fill-opacity:1;stroke:none;stroke-width:0.384409"
       id="path7738"
       inkscape:connector-curvature="0" />
    <path
       d="m 172.98994,210.10069 c 0.10798,0.40646 0.58122,0.21846 0.72584,-0.0405 0.21592,-0.38551 -0.49086,-0.96759 -0.7639,-1.12561 -0.14458,0.39171 0.11132,0.76961 0.0381,1.16607"
       style="display:inline;fill:#ffffff;fill-opacity:1;stroke:none;stroke-width:0.384409"
       id="path7740"
       inkscape:connector-curvature="0" />
    <path
       d="m 174.59711,212.39474 c 0.0146,-0.26224 -0.2283,-0.45928 -0.18217,-0.7163 0.0599,-0.33268 0.25732,-0.25415 0.15791,-0.58493 -0.0718,-0.24131 -0.36768,-0.98806 -0.73533,-0.84909 -0.54936,0.20799 0.49608,1.93186 0.75959,2.15032"
       style="display:inline;fill:#ffffff;fill-opacity:1;stroke:none;stroke-width:0.384409"
       id="path7742"
       inkscape:connector-curvature="0" />
    <path
       d="m 179.52989,190.66834 c -0.14224,-0.67775 -1.08634,-0.88621 -1.32987,-0.15373 -0.13508,0.40788 0.12367,0.98901 0.57362,1.07897 0.54317,0.10851 0.56073,-0.61064 0.75625,-0.92524"
       style="display:inline;fill:#ffffff;fill-opacity:1;stroke:none;stroke-width:0.384409"
       id="path7744"
       inkscape:connector-curvature="0" />
    <path
       d="m 131.65286,102.46243 c -0.10179,-0.0114 -0.20312,-0.0228 -0.30491,-0.0343 0.18313,0.13993 0.38718,0.23131 0.61359,0.27414 -0.10321,-0.08 -0.20596,-0.15991 -0.30868,-0.23987"
       style="display:inline;fill:#ffffff;fill-opacity:1;stroke:none;stroke-width:0.384409"
       id="path8742"
       inkscape:connector-curvature="0" />
    <path
       d="m 131.79029,104.72412 c 0.0127,0.21323 0.10513,0.38504 0.27589,0.51402 -0.0476,-0.26415 0.43803,-0.48118 0.4428,-0.44596 -0.0576,-0.46119 -0.50561,-0.29937 -0.71869,-0.0681"
       style="display:inline;fill:#ffffff;fill-opacity:1;stroke:none;stroke-width:0.384409"
       id="path8744"
       inkscape:connector-curvature="0" />
    <path
       d="m 132.16651,104.1073 c 0.0918,0.0685 0.18409,0.13707 0.27589,0.2056 -0.0699,-0.0985 -0.16172,-0.16705 -0.27589,-0.2056"
       style="display:inline;fill:#ffffff;fill-opacity:1;stroke:none;stroke-width:0.384409"
       id="path8746"
       inkscape:connector-curvature="0" />
    <path
       d="m 132.20457,105.40948 c 0.14081,0.36125 0.47613,0.5916 0.58695,0.97331 0.0623,0.25891 0.0694,0.51925 0.0204,0.78103 -0.0281,0.20179 -0.35008,1.23698 0.14362,0.50735 -0.0989,0.13136 -0.10794,0.25654 -0.0265,0.37552 0.54224,0.24083 0.59979,-1.52968 0.54032,-1.74671 -0.12032,-0.4374 -0.83521,-0.82719 -0.8452,-1.22508 -0.01,-0.37315 -0.50035,-0.05 -0.41951,0.33458"
       style="display:inline;fill:#ffffff;fill-opacity:1;stroke:none;stroke-width:0.384409"
       id="path8748"
       inkscape:connector-curvature="0" />
    <path
       d="m 132.33726,107.87678 c 0.0904,0.13612 0.24783,-0.19038 0.10514,0.23988 0.15411,-0.1861 0.1874,-0.39171 0.0994,-0.61683 -0.0685,0.12565 -0.13604,0.2513 -0.20455,0.37695"
       style="display:inline;fill:#ffffff;fill-opacity:1;stroke:none;stroke-width:0.384409"
       id="path8750"
       inkscape:connector-curvature="0" />
    <path
       d="m 132.64644,106.36899 c -0.0181,0.15468 0.006,0.30365 0.0708,0.44548 0.0315,-0.15706 0.008,-0.30556 -0.0708,-0.44548"
       style="display:inline;fill:#ffffff;fill-opacity:1;stroke:none;stroke-width:0.384409"
       id="path8752"
       inkscape:connector-curvature="0" />
    <path
       d="m 134.18796,107.73971 c 0.8005,-0.41169 0.27728,-1.24936 -0.0671,-1.78194 0.14792,0.5759 0.13651,1.19557 0.0671,1.78194"
       style="display:inline;fill:#ffffff;fill-opacity:1;stroke:none;stroke-width:0.384409"
       id="path8754"
       inkscape:connector-curvature="0" />
    <path
       d="m 135.7951,106.64313 c 0.34247,-0.34839 -0.19832,-0.86289 -0.4428,-1.06231 -0.10986,0.41836 0.11225,0.81815 0.4428,1.06231"
       style="display:inline;fill:#ffffff;fill-opacity:1;stroke:none;stroke-width:0.384409"
       id="path8756"
       inkscape:connector-curvature="0" />
    <path
       d="m 137.30287,108.42507 c -0.0847,0.23512 -0.0956,0.47499 -0.0335,0.71963 0.0666,-0.23702 0.0775,-0.4769 0.0335,-0.71963"
       style="display:inline;fill:#ffffff;fill-opacity:1;stroke:none;stroke-width:0.384409"
       id="path8758"
       inkscape:connector-curvature="0" />
    <path
       d="m 137.57872,110.24127 c 0.57123,-0.21227 0.14938,-0.9219 -0.24302,-1.06183 0.0785,0.35458 0.12032,0.7182 0.24302,1.06183"
       style="display:inline;fill:#ffffff;fill-opacity:1;stroke:none;stroke-width:0.384409"
       id="path8760"
       inkscape:connector-curvature="0" />
    <path
       d="m 122.06363,89.577654 c 0.0131,-0.153729 0.0481,-0.302226 0.10467,-0.445483 0.3881,0.28033 1.04017,0.46119 1.23472,0.945227 0.17502,0.437392 0.90133,0.421685 1.26709,0.562563 -0.0994,-0.28033 -0.2597,-0.520205 -0.48039,-0.719625 0.57361,-0.105663 0.69013,0.416926 0.89467,0.818149 0.30584,0.59969 1.09726,0.73105 1.64043,1.032323 0.11513,-0.288422 0.19789,-0.564947 0.0334,-0.857179 1.05782,-0.08947 1.29707,1.991831 1.33417,2.637688 0.0242,0.426925 -0.0942,0.809581 0.39905,0.978067 0.73961,0.252249 1.62667,0.46214 2.40956,0.46214 1.65614,0 3.34274,-0.149919 5.00742,0.01 0.77005,0.07377 2.91228,1.396419 1.05209,1.223651 0.55509,1.056598 -0.72153,2.013249 -0.82283,2.878992 -0.32817,-0.291278 -0.65876,0.257485 -0.88944,-0.103279 0.0657,0.570178 -0.56835,0.458335 -0.9227,0.411214 0.14696,0.468806 -0.41478,1.256018 -0.45279,1.766708 -0.0533,0.71725 0.65445,1.76528 0.93365,2.41399 0.0656,-0.22607 0.0766,-0.45453 0.0327,-0.68536 0.34243,0.1523 0.92178,1.92377 1.55198,0.88336 0.23449,-0.3879 -0.22926,-1.04137 -0.0104,-1.53492 0.21546,-0.48595 0.33482,-0.58018 0.17121,-1.13037 0.46564,0.41121 0.95365,-0.6254 1.25756,0.10803 0.36054,0.8686 0.54459,1.87808 0.80526,2.78238 0.33628,1.16511 0.74295,2.27739 1.03733,3.46012 0.28396,1.13941 0.35292,2.39828 0.8048,3.48486 -0.40383,0.12185 -0.89133,-0.5935 -1.36127,-0.51592 -0.70536,0.11613 0.25828,2.19744 0.26255,2.60628 -0.32533,-0.51402 -0.90894,-1.14085 -1.08207,-1.71864 -0.18406,-0.61159 -0.20785,-0.97331 -0.28727,-1.5711 -0.14888,-1.10562 -1.66423,-2.28739 -0.8181,-3.4268 -0.21877,0.17515 -0.35293,0.51355 -0.3472,0.78816 -0.31295,-0.94189 -1.5168,-1.7153 -1.43642,-2.7757 -0.0315,0.44024 -0.5246,0.60635 -0.77193,0.89905 -0.0994,0.10662 -0.12747,0.22941 -0.0842,0.36886 -0.29822,0.1 -0.57123,-0.0457 -0.71869,-0.30841 0.0751,0.1247 0.0804,0.24416 0.0154,0.35839 -0.48513,0.28128 -1.2433,-1.50113 -1.38741,-1.69484 -0.1332,-0.2256 -0.18264,-0.46738 -0.14696,-0.72677 0.0119,-0.43311 -0.1836,-0.55019 -0.30299,-0.91905 -0.0918,-0.28461 0.40382,-0.39551 0.2145,-0.65014 -0.0656,0.26463 0.34389,0.13945 -0.30914,0.20608 0.0158,-0.12707 0.0377,-0.25272 0.0666,-0.37742 -0.16933,0.13755 -0.3515,0.16039 -0.54651,0.069 0.14888,0.10804 0.74868,0.87764 0.19121,0.80577 -0.2787,-0.0357 -0.7767,-0.21275 -0.94746,-0.25748 0.44665,0.26938 1.11298,0.48927 1.3803,0.9714 0.18217,0.32793 -0.16076,0.5559 -0.42,0.67299 0.35342,0.42787 0.15933,0.81577 -0.13793,1.19985 0.64354,0.0138 0.43757,0.643 0.41382,1.09658 0.0837,-0.11946 0.17406,-0.23369 0.27108,-0.34268 0.53414,0.47547 0.63593,1.71673 -0.23779,1.88474 0.0566,-0.24273 0.0219,-0.47071 -0.10514,-0.68488 0.079,0.56542 -0.0799,1.0328 -0.18406,1.5768 -0.1227,0.64443 -0.88467,0.38218 -0.56742,-0.13755 -0.0994,0.10662 -0.20262,0.20894 -0.30868,0.30842 -0.17502,-0.60922 0.51511,-0.8291 0.58453,-1.37025 -0.19167,0.31412 -0.48228,0.55019 -0.75625,0.78721 0.0277,-0.2294 0.0956,-0.44643 0.20455,-0.65061 -0.14462,0.21893 -0.29204,0.43596 -0.44234,0.65061 -0.22023,-0.69678 -0.31249,-1.28981 -0.0335,-1.98754 -0.7534,0.30651 -0.0932,1.00567 -0.35815,1.51636 -0.19171,0.36933 0.26347,0.39313 0.10367,0.84147 -0.14315,0.40217 -0.5389,0.18229 -0.70585,-0.0619 -0.0304,0.21608 -0.0418,0.43311 -0.0334,0.65109 -0.53556,0.006 -0.27585,-2.00277 -0.27585,-2.33022 -0.17883,0.455 0.0437,0.91 -0.0666,1.37072 -0.17506,-0.38123 -0.36008,-0.77817 -0.41382,-1.19938 0.006,0.68298 0.68586,1.70436 0,2.39876 -0.2007,-0.33888 -0.0223,-0.74009 -0.27108,-1.06231 0.1365,0.34173 -0.089,1.08611 -0.34247,1.33645 0.0358,-0.65347 -0.65923,-1.15892 -0.74103,-1.87712 -0.0904,-0.79531 -0.53317,-1.40261 -0.70062,-2.16603 -0.0808,-0.3679 -0.156,-0.73724 -0.27063,-1.09705 -0.15507,-0.48594 -0.0185,-0.71773 -0.0585,-1.18034 -0.0227,-0.26225 -0.39287,-0.24369 -0.5722,-0.28748 -0.37526,-0.0914 -0.14838,-0.52734 -0.12078,-0.78387 0.0604,-0.56019 -0.9917,-0.59827 -0.94983,-1.34645 0.0215,-0.38409 0.4466,-0.51878 0.49369,-0.870983 0.0476,-0.356482 -0.0894,-0.763417 -0.22499,-1.086582 -0.22165,-0.528297 -1.29181,-0.58351 -1.78789,-0.920952 -0.29157,-0.197994 -0.7943,-0.488322 -0.82236,-0.890972 -0.03,-0.422161 0.35242,-0.722958 0.37576,-1.130842 0.57884,1.018045 0.80714,-0.894778 0.96075,-0.925238 0.38479,-0.0771 1.18386,-0.15278 1.54106,0.03429 0.44091,-0.710588 -0.49132,-0.454529 -0.56601,-1.130847 -0.0513,-0.464046 -0.66729,-0.08186 -0.99739,-0.300319 -0.44948,-0.296991 -0.63877,-0.864317 -1.16149,-1.071828 -1.31083,-0.519733 -0.61355,-2.056085 0.46564,-2.466349 -0.0975,-0.328877 -0.44423,-0.473088 -0.75675,-0.47975"
       style="display:inline;fill:#ffffff;fill-opacity:1;stroke:none;stroke-width:0.384409"
       id="path8842"
       inkscape:connector-curvature="0" />
    <path
       d="m 165.75989,161.71138 c -0.23118,-0.0552 -0.27589,0.059 -0.13319,0.34315 0.0447,-0.11422 0.089,-0.22845 0.13319,-0.34315"
       style="display:inline;fill:#ffffff;fill-opacity:1;stroke:none;stroke-width:0.384409"
       id="path9366"
       inkscape:connector-curvature="0" />
    <path
       d="m 165.93634,164.96731 c -0.17645,0.57494 -0.077,1.19701 0.1327,1.74768 0.50988,-0.41027 0.45329,-1.42641 -0.1327,-1.74768"
       style="display:inline;fill:#ffffff;fill-opacity:1;stroke:none;stroke-width:0.384409"
       id="path9368"
       inkscape:connector-curvature="0" />
    <path
       d="m 166.78723,165.27573 c 0.10321,0.2394 0.22688,0.47119 0.30918,0.71963 0.0196,-0.29271 -0.0837,-0.53259 -0.30918,-0.71963"
       style="display:inline;fill:#ffffff;fill-opacity:1;stroke:none;stroke-width:0.384409"
       id="path9370"
       inkscape:connector-curvature="0" />
    <path
       d="m 168.9799,167.94863 c -0.0395,-0.27509 -0.15361,-0.51497 -0.34244,-0.71962 0.0296,0.28033 0.14362,0.5202 0.34244,0.71962"
       style="display:inline;fill:#ffffff;fill-opacity:1;stroke:none;stroke-width:0.384409"
       id="path9372"
       inkscape:connector-curvature="0" />
    <path
       d="m 171.17256,171.06702 c -0.2421,0.24274 -0.26731,0.60208 0.13793,0.68537 -0.0433,-0.22893 -0.0894,-0.45739 -0.13793,-0.68537"
       style="display:inline;fill:#ffffff;fill-opacity:1;stroke:none;stroke-width:0.384409"
       id="path9374"
       inkscape:connector-curvature="0" />
    <path
       d="m 171.7576,159.24455 c -0.23641,0.21561 -0.22546,0.42121 0.0334,0.61683 0.23018,-0.21323 0.21877,-0.41883 -0.0334,-0.61683"
       style="display:inline;fill:#ffffff;fill-opacity:1;stroke:none;stroke-width:0.384409"
       id="path9376"
       inkscape:connector-curvature="0" />
    <path
       d="m 171.68625,158.35359 c -0.1056,0.24415 0.0928,0.34553 0.30868,0.34267 -0.0928,-0.12326 -0.19597,-0.23749 -0.30868,-0.34267"
       style="display:inline;fill:#ffffff;fill-opacity:1;stroke:none;stroke-width:0.384409"
       id="path9378"
       inkscape:connector-curvature="0" />
    <path
       d="m 179.29205,149.23829 c 0.11225,0.011 0.225,0.0228 0.33724,0.0338 0.004,-0.27748 -0.16837,-0.49832 -0.40859,-0.61683 0,0.19752 0.0261,0.39171 0.0713,0.58303"
       style="display:inline;fill:#ffffff;fill-opacity:1;stroke:none;stroke-width:0.384409"
       id="path9380"
       inkscape:connector-curvature="0" />
    <path
       d="m 141.34573,114.49051 c -0.0238,0.17658 0.0552,0.3027 0.2378,0.37695 -0.0794,-0.12565 -0.15838,-0.25178 -0.2378,-0.37695"
       style="display:inline;fill:#ffffff;fill-opacity:1;stroke:none;stroke-width:0.384409"
       id="path10034"
       inkscape:connector-curvature="0" />
    <path
       d="m 142.09722,116.30671 c 0.15841,0.22798 0.29634,0.46786 0.41381,0.71963 -0.0999,-0.3898 -0.26589,-0.77103 -0.55174,-1.06183 0.0461,0.11375 0.0923,0.22798 0.13793,0.3422"
       style="display:inline;fill:#ffffff;fill-opacity:1;stroke:none;stroke-width:0.384409"
       id="path10036"
       inkscape:connector-curvature="0" />
    <path
       d="m 143.84755,116.51232 c -0.12032,0.2751 0.23402,0.58542 0.40904,0.72011 -0.0111,-0.29318 -0.18024,-0.54876 -0.40904,-0.72011"
       style="display:inline;fill:#ffffff;fill-opacity:1;stroke:none;stroke-width:0.384409"
       id="path10038"
       inkscape:connector-curvature="0" />
    <path
       d="m 145.17933,120.89816 c -0.1874,0.01 -0.35815,0.0671 -0.51369,0.17133 1.11202,1.28077 1.12486,-0.19513 0.51369,-0.17133"
       style="display:inline;fill:#ffffff;fill-opacity:1;stroke:none;stroke-width:0.384409"
       id="path10040"
       inkscape:connector-curvature="0" />
    <path
       d="m 146.10679,118.91108 c -0.20023,-0.40312 -0.69678,-0.4174 -0.96125,-0.75389 -0.49704,0.50688 0.49942,1.45163 0.96125,0.75389"
       style="display:inline;fill:#ffffff;fill-opacity:1;stroke:none;stroke-width:0.384409"
       id="path10042"
       inkscape:connector-curvature="0" />
    <path
       d="m 150.07831,131.7616 c -0.23018,0.25272 -1.07396,1.04612 -0.58453,1.40498 0.35101,-0.37075 0.86185,-0.83861 0.58453,-1.40498"
       style="display:inline;fill:#ffffff;fill-opacity:1;stroke:none;stroke-width:0.384409"
       id="path10044"
       inkscape:connector-curvature="0" />
    <path
       d="m 150.86785,133.09805 c -0.0923,0.16277 -0.16549,0.1128 0,0.34268 0,-0.11423 0,-0.22846 0,-0.34268"
       style="display:inline;fill:#ffffff;fill-opacity:1;stroke:none;stroke-width:0.384409"
       id="path10046"
       inkscape:connector-curvature="0" />
    <path
       d="m 160.28537,130.69929 c -0.18501,0.0819 -0.24402,0.82243 -0.007,0.82243 0.46375,0 0.44899,-0.76484 0.007,-0.82243"
       style="display:inline;fill:#ffffff;fill-opacity:1;stroke:none;stroke-width:0.384409"
       id="path10048"
       inkscape:connector-curvature="0" />
    <path
       d="m 163.63903,148.03891 c 0.0984,-0.10661 0.15554,-0.23179 0.17076,-0.37695 -0.40667,-0.0671 -0.46375,0.0585 -0.17076,0.37695"
       style="display:inline;fill:#ffffff;fill-opacity:1;stroke:none;stroke-width:0.384409"
       id="path10050"
       inkscape:connector-curvature="0" />
    <path
       d="m 164.08564,150.64328 c 0.0111,-0.25844 -0.0694,-0.48642 -0.24256,-0.68489 0.0975,0.22179 0.17836,0.45025 0.24256,0.68489"
       style="display:inline;fill:#ffffff;fill-opacity:1;stroke:none;stroke-width:0.384409"
       id="path10052"
       inkscape:connector-curvature="0" />
    <path
       d="m 163.981,148.55293 c 0.0685,0 0.13605,0 0.20455,0 -0.0866,-0.13898 -0.18932,-0.2651 -0.30868,-0.37695 0.0346,0.12565 0.0694,0.2513 0.10413,0.37695"
       style="display:inline;fill:#ffffff;fill-opacity:1;stroke:none;stroke-width:0.384409"
       id="path10054"
       inkscape:connector-curvature="0" />
    <path
       d="m 164.4614,145.22893 c 0.21688,-0.27367 0.0961,-0.5559 -0.20451,-0.68489 0.0661,0.22893 0.13412,0.45691 0.20451,0.68489"
       style="display:inline;fill:#ffffff;fill-opacity:1;stroke:none;stroke-width:0.384409"
       id="path10056"
       inkscape:connector-curvature="0" />
    <path
       d="m 165.21292,154.51557 c -0.0447,-0.40123 -0.24022,-0.7677 -0.5803,-0.99378 -0.0889,0.10186 -0.15646,0.21608 -0.20451,0.34268 0.46898,-0.22702 0.64304,0.33983 0.78481,0.6511"
       style="display:inline;fill:#ffffff;fill-opacity:1;stroke:none;stroke-width:0.384409"
       id="path10058"
       inkscape:connector-curvature="0" />
    <path
       d="m 164.56604,151.49998 c 0.57599,-0.0395 0.52083,-1.08373 0.27112,-1.40499 -0.11748,0.46214 -0.20785,0.93285 -0.27112,1.40499"
       style="display:inline;fill:#ffffff;fill-opacity:1;stroke:none;stroke-width:0.384409"
       id="path10060"
       inkscape:connector-curvature="0" />
    <path
       d="m 164.80387,147.73049 c 0.17502,0.24988 0.94984,-1.27933 -0.13747,-1.0623 0.0666,0.35077 0.21024,0.69773 0.13747,1.0623"
       style="display:inline;fill:#ffffff;fill-opacity:1;stroke:none;stroke-width:0.384409"
       id="path10062"
       inkscape:connector-curvature="0" />
    <path
       d="m 164.97509,157.49688 c 0.0223,0.11423 0.0442,0.22798 0.0666,0.34268 0.21358,-0.13612 0.3168,-0.3303 0.30918,-0.58255 -0.13319,0.0676 -0.25828,0.14754 -0.37575,0.23987"
       style="display:inline;fill:#ffffff;fill-opacity:1;stroke:none;stroke-width:0.384409"
       id="path10064"
       inkscape:connector-curvature="0" />
    <path
       d="m 165.42265,150.84889 c 0.0799,0.19799 0.22784,0.3008 0.44234,0.30793 0.17076,-1.11323 -1.06827,-1.32503 -0.44234,-0.30793"
       style="display:inline;fill:#ffffff;fill-opacity:1;stroke:none;stroke-width:0.384409"
       id="path10066"
       inkscape:connector-curvature="0" />
    <path
       d="m 165.38413,149.23829 c 0.0937,0.15896 0.18598,0.31888 0.27586,0.47975 0.13462,-0.08 0.24829,-0.18324 0.34247,-0.30841 -0.27589,-0.10756 -0.50466,-0.2789 -0.6849,-0.51402 0.0223,0.11422 0.0447,0.22845 0.0666,0.34268"
       style="display:inline;fill:#ffffff;fill-opacity:1;stroke:none;stroke-width:0.384409"
       id="path10068"
       inkscape:connector-curvature="0" />
    <path
       d="m 165.35084,147.52489 c 0.069,-0.18372 0.18502,-0.11566 0.0335,-0.37695 -0.0112,0.12517 -0.0219,0.2513 -0.0335,0.37695"
       style="display:inline;fill:#ffffff;fill-opacity:1;stroke:none;stroke-width:0.384409"
       id="path10070"
       inkscape:connector-curvature="0" />
    <path
       d="m 138.81063,111.40639 c 0.0338,-0.26368 -0.02,-0.93048 0.36954,-0.97426 0.48278,-0.0543 0.79338,0.67441 1.27612,0.52877 -0.25494,-0.61206 -0.43235,-1.25839 -0.49704,-1.91948 0.0146,-0.27224 -0.0138,-0.53925 -0.0856,-0.80197 -0.10225,-0.25463 0.30203,-0.51545 0.23972,-0.80815 0.34866,0.12469 0.54128,0.86384 0.97317,0.72819 0.30914,-0.0971 0.16741,-0.7044 0.22591,-0.93428 0.7182,0.41931 0.41094,-0.63681 0.2792,-0.95141 -0.37053,-0.88526 -0.29584,-1.573 -0.41712,-2.50966 0.70677,0.52497 0.73387,-0.55543 0.72103,-1.00091 -0.0323,-1.098 -0.23875,-2.04275 -0.61639,-3.076984 0.16456,-0.01188 0.30964,0.03571 0.43615,0.142308 0.32486,0.217986 0.30441,0.05854 0.69297,-0.01046 0.38718,-0.06949 1.54675,0.416926 1.84878,0.656806 -0.0135,-1.572526 2.15034,-4.375363 0.9313,-5.599967 -0.64688,-0.649667 0.72392,-1.555388 0.87134,-2.204578 0.17126,-0.756278 0.39956,-1.19367 0.0227,-1.863326 -0.30964,-0.551143 -0.40474,-1.61012 0.19598,-2.018005 0.18597,-0.127078 0.75102,0.04093 0.78477,-0.288422 0.0311,-0.307462 0.64496,-0.511641 0.88183,-0.737239 0.29919,-0.285566 0.46233,-0.575894 0.66257,-0.933326 0.33958,-0.607781 1.22188,-0.519255 1.81356,-0.610637 0.28443,-0.04379 0.63166,-0.243208 0.88276,-0.0027 0.33912,0.324118 0.68824,1.08087 1.30941,0.824811 -0.0965,-0.526394 -0.61305,-0.781027 -0.93127,-1.156068 -0.58219,-0.685839 -0.19263,-1.214136 0.32867,-1.736248 0.7496,-0.749136 0.3981,-0.598264 0.3981,-1.407844 0,-0.286996 0.35957,-0.397414 0.33247,-0.66299 -0.0334,-0.329831 0.0989,-0.638719 0.1094,-0.964744 0.6402,0.712014 1.92535,0.827194 2.44377,1.736725 0.18836,0.329831 0.12939,0.736762 0.29634,1.073255 0.22638,0.455955 0.56266,0.84623 0.78908,1.302185 0.26635,-0.09471 0.41093,-0.308888 0.27108,-0.583033 1.42024,0.660611 1.45449,2.127473 1.84167,3.533414 0.1907,0.693451 0.32248,1.277914 0.21115,1.993257 -0.0456,0.293658 0.48705,1.27934 -0.2692,0.984256 0.11605,0.296987 1.09303,1.448299 0.12224,1.157498 -0.1736,-0.05188 -0.48278,0.689168 -0.45325,0.82957 0.0941,0.44739 -0.49516,0.154682 -0.72915,0.138025 -0.0713,0.251773 -0.12559,2.131756 -0.9275,1.404988 0.0338,0.63396 -0.29915,1.108002 0.0709,1.713403 -0.63781,0.04997 -0.63496,0.511164 -0.60833,1.011857 0.0273,0.518779 0.45042,0.524968 0.63067,0.926664 0.0785,0.175148 0.36434,0.660611 0.28492,0.857655 -0.13793,0.342677 -0.66257,0.831474 -0.22592,1.176534 0.20405,0.16087 1.37361,-0.765793 1.57289,-0.877641 0.8628,-0.485466 1.89494,0.294607 2.72634,-0.318882 0.1322,0.535435 -0.56508,0.74628 -0.38764,1.278383 0.10034,0.30175 0.30296,0.45215 0.50796,0.67489 0.25971,0.28128 -0.0628,0.59541 0.11844,0.75104 0.48801,0.41979 0.30249,1.19796 0.93507,1.52017 0.86235,0.4393 1.56055,-0.11613 1.90871,0.91572 -0.88464,-0.0357 -0.4014,1.02899 -0.33959,1.5097 0.0652,0.50497 -1.01215,1.49875 -0.0984,1.79193 0.62212,0.19942 1.93819,-0.21465 2.45948,0.26224 0.56981,0.52212 -0.22688,1.52683 0.92274,1.54206 -0.15649,0.23893 -0.0327,0.6787 0.13077,0.88193 0.2659,0.32983 0.51653,-0.3879 0.88707,-0.14897 0.76432,0.49308 1.75982,-0.71296 2.33962,-1.14369 0.0414,0.59731 0.49751,0.93142 -0.0566,1.42878 -0.25544,0.22941 -0.84332,0.36077 -0.99312,0.62492 -0.11751,0.20751 -0.85043,1.99516 -0.14888,1.57871 -0.0542,0.50878 -0.86611,0.25225 -1.16484,0.47975 -0.5213,0.39693 -0.34435,1.19224 -0.48086,1.74767 -0.69347,-0.68251 -1.24233,0.0952 -2.08803,0.13707 0.22307,0.28842 0.22023,0.76675 -0.15361,0.93476 -0.37003,0.16658 -0.59599,-0.22179 -0.93984,-0.19371 -0.42808,0.0357 -0.32725,0.96807 -0.40524,1.24887 -0.0875,0.3146 -0.27017,0.277 -0.49608,0.12423 -0.22261,-0.1504 -0.79289,0.50593 -1.12059,0.47356 -0.16457,-0.0162 -1.77886,-0.2532 -1.77886,-0.29651 0,0.55638 -0.44568,0.92904 -0.59218,1.48352 -0.0718,0.27129 0.1332,0.59779 0.19501,0.85194 0.0832,0.34078 -0.25636,0.70202 -0.30107,1.04232 -0.058,0.44406 0.62167,0.95903 0.31487,1.41927 -0.27635,0.41597 -1.142,0.53734 -1.40025,0.04 0.14458,0.50688 0.45564,1.44258 1.1653,1.23365 -0.0618,0.32316 0.15411,0.58208 0.30584,0.83718 0.22541,0.38076 0.10083,0.75914 0.2416,1.15036 0.24306,0.67727 1.21239,1.48447 1.69563,2.01658 0.29584,0.32555 0.59929,0.6449 0.83947,1.01614 0.21977,0.33983 0.63262,0.26558 0.78907,0.8053 0.24641,0.84718 0.4119,1.68342 0.98932,2.39876 0.18978,-0.20989 0.32771,-0.44976 0.41382,-0.7201 0.43234,0.35648 0.27777,1.07849 -0.10464,1.40499 -0.508,0.43406 -0.7943,-0.0166 -0.61309,0.87954 0.10275,0.50879 0.21307,1.31789 0.15887,1.83001 -0.0428,0.40598 -0.66306,0.37505 -0.54032,0.8548 -0.33152,-0.29937 -0.59549,-0.0657 -0.66876,0.29937 -0.10464,0.52306 0.17837,1.18463 0.42666,1.63058 0.66541,1.1951 1.87826,2.04276 2.79338,3.01702 0.86135,0.91762 1.0188,2.16126 1.13293,3.34589 0.0523,0.54734 -0.28346,0.48213 -0.0223,1.09896 0.24732,0.58493 0.2825,0.91952 0.75055,1.38024 0.43996,0.43311 0.36431,0.91952 0.54506,1.46163 0.18455,0.55018 0.52698,1.01471 0.68774,1.57918 0.2288,0.8053 -0.53029,1.8876 -0.89559,2.6215 -0.38195,0.76628 -0.8685,1.65201 -1.48966,2.16841 -0.43143,0.35886 0.0428,0.76294 -0.16745,1.18367 -0.31011,0.61826 -0.36527,1.32313 -0.72915,1.93948 -0.40951,-0.64443 -0.2007,-1.59156 -0.37099,-2.31452 -0.0694,-0.29556 -0.2278,-0.5502 0.0647,-0.73201 0.3577,-0.22131 0.0847,-0.3541 0.25637,-0.6292 0.36957,-0.59255 0.45045,-1.30218 0.30918,-1.99753 -0.0671,-0.32936 -0.26921,-1.4226 0.32578,-1.4207 -0.0946,-0.15849 -0.14077,-0.32983 -0.13792,-0.51402 -0.16599,0.22988 -0.40809,0.40883 -0.68444,0.47975 -0.0851,-0.48927 0.58837,-0.7558 -0.1051,-0.68488 0.79288,-0.3779 -0.36861,-0.97569 0.27585,-1.33693 -0.28396,0.0752 -0.52318,-0.0719 -0.61832,-0.34268 0.1879,-0.0281 0.35911,-0.0966 0.51368,-0.20609 -0.3101,-0.16753 -0.5246,-0.53924 -0.0327,-0.65061 -0.42281,-0.14041 -0.16741,-0.55162 -0.23115,-0.93238 -0.10652,-0.63301 -0.34623,-1.29838 -0.58976,-1.89093 -0.2564,-0.62301 -0.63404,-1.21937 -0.93607,-1.82334 -0.28727,-0.57542 -0.31437,-1.2703 -0.70677,-1.79574 0.18167,0.48975 0.40712,1.60964 0.0334,2.0556 0.13174,-0.40598 -0.21688,-0.76912 -0.25114,-1.15987 -0.0327,-0.36839 -0.0437,-0.97188 -0.12889,-1.30742 -0.0808,-0.31841 -1.38791,-2.56868 -0.58072,-2.12462 -0.0334,-0.13612 -0.0904,-0.26177 -0.17076,-0.37695 -0.11417,0.0685 -0.2283,0.13707 -0.34293,0.20561 -0.58934,-1.47305 -0.45756,-3.12172 -0.99693,-4.58954 -0.10463,-0.28414 -0.35865,-0.43834 -0.48374,-0.70106 -0.11128,-0.23417 0.0162,-0.50974 0.004,-0.75533 -0.0238,-0.44929 -0.34247,-1.32693 0.24587,-1.5611 -0.37857,0.0605 -1.04398,0.32269 -1.32652,-0.0471 -0.51465,-0.67441 -0.92224,-1.41593 -0.97075,-2.2831 -0.3377,0.22559 -0.27209,-0.26891 -0.55982,-0.53354 -0.24829,-0.22798 -0.56838,-0.42549 -0.6721,-0.76865 -0.0694,0.0871 0.0538,0.82624 0.0509,0.99473 -0.008,0.58017 0.34343,1.17368 0.0342,1.78051 -0.22307,0.43977 -0.50749,1.04993 -1.07492,1.09657 -0.58265,0.0486 -1.25091,-0.74009 -0.82237,-1.26791 -0.67683,0.16991 -0.0913,0.66822 0.0894,1.08467 0.25017,0.57637 -0.3572,1.23556 -0.87945,0.69726 0.55839,0.39313 -0.55029,1.09134 -0.96122,0.68489 0.13935,0.52544 -0.27731,2.30881 -1.13916,1.98183 -0.44472,-0.16848 -0.0315,-1.35311 -0.12604,-1.70769 -0.0215,0.0324 -0.46752,1.66391 -0.2378,0.58256 -0.14081,0.29271 -0.19785,0.60159 -0.17125,0.92523 -0.42758,-0.21084 -0.54552,-1.14369 -0.20878,-1.40498 -0.50607,-0.33078 -0.30633,2.05798 -0.98743,1.46305 -0.32436,-0.28319 -0.0419,-1.83096 0.23591,-1.97707 -0.49938,0.19656 -0.63638,1.21984 -0.8894,1.67913 -0.14888,-0.0885 -0.27397,-0.20275 -0.37576,-0.34268 0.41904,-0.17562 0.47563,-0.60873 0.58026,-0.99377 -0.19643,0.33649 -0.27635,0.84004 -0.75148,0.89049 0.51557,-0.69535 0.28062,-1.56967 0.37572,-2.36449 -0.0685,0.007 -0.136,0.007 -0.2045,0 0.26635,0.57208 -0.50988,1.85237 -1.0421,2.06655 -0.76958,0.30984 -0.14603,-2.94943 -0.0471,-3.31067 0.0994,-0.36267 -0.0104,-1.43308 0.19025,-1.62345 0.50988,-0.48261 -0.0466,-1.84001 -0.28681,-2.37211 -0.30868,-0.68441 -0.20501,-1.72435 -0.71204,-2.28549 -0.21496,-0.23797 -0.33959,-0.54781 -0.47847,-0.83195 -0.20832,-0.42597 -0.77194,-0.67727 -0.19263,-0.79245 -0.40429,-0.27938 -0.88945,-0.37362 -0.88945,-0.96474 0,-0.44025 0.0258,-1.14798 -0.20877,-1.53683 0.0561,0.32032 0.19786,1.05803 -0.37576,0.65062 0.26443,0.3246 0.47801,0.97045 0.27585,1.3712 -0.82855,-0.33745 -1.33509,-1.1951 -1.82214,-1.89854 -0.13365,-0.19228 0.28777,-0.3879 0.42997,-0.1266 0.10655,0.19656 0.38717,0.2651 0.58457,0.32221 0.44518,0.12898 1.01595,-0.10804 0.60498,-0.65157 -0.23161,-0.30698 -1.27039,-0.70297 -0.654,-1.14084 -0.27773,-0.006 -0.5517,-0.0405 -0.82236,-0.1028 0.0847,-0.23274 0.11797,-0.47262 0.0999,-0.71963 -0.31441,0.15373 -0.74722,-0.21656 -0.92178,-0.43597 -0.32628,-0.40978 -0.60452,-0.12136 -1.06162,-0.31793 0.15888,0.366 0.35958,0.71392 0.4804,1.09658 -0.14604,-0.2356 -0.28397,-0.47547 -0.41382,-0.71963 -0.0618,0.24987 -0.0158,0.4788 0.13796,0.68536 -0.40858,-0.56161 -0.62973,-0.91381 -0.27112,-1.57681 -0.15888,0.03 -0.31867,0.0409 -0.4804,0.0343 0.0942,-0.2432 0.19552,-0.48308 0.30488,-0.71963 -0.0666,0.0148 -0.12224,0.0495 -0.16695,0.10281 -0.0694,-0.26272 -0.0694,-0.52544 0,-0.78816 -0.23779,0.57541 -0.20024,1.21889 -0.48036,1.78193 -0.45806,-0.20085 -0.24733,-0.45119 -0.19597,-0.81148 0.0599,-0.41979 -0.42189,-0.76628 -0.62639,-1.07326 0.0594,0.34934 0.26443,0.72153 0.0327,1.06183 -0.17168,-0.63443 -0.82709,-0.94237 -1.19047,-1.44497 -0.44046,-0.6092 -0.70251,-1.47114 -1.03403,-2.15174"
       style="display:inline;fill:#ffffff;fill-opacity:1;stroke:none;stroke-width:0.384409"
       id="path10072"
       inkscape:connector-curvature="0" />
    <path
       d="m 151.17227,131.8644 c 0.0461,-0.0342 0.0923,-0.069 0.13842,-0.10328 -0.0246,0.0638 -0.0709,0.098 -0.13842,0.10328"
       style="display:inline;fill:#ffffff;fill-opacity:1;stroke:none;stroke-width:0.384409"
       id="path10074"
       inkscape:connector-curvature="0" />
    <path
       d="m 45.220701,33.686501 c 0.70343,-0.46452 1.553858,-0.588742 2.348662,-0.346487 0.243523,0.07425 1.537213,0.488318 1.037827,0.92857 0.573115,-0.0395 0.552204,-0.655379 0.975515,-0.906202 0.6302,-0.373138 1.06685,-0.878593 1.822598,-0.550665 0.195972,0.08519 0.374337,0.293181 0.560315,0.360287 0.298685,0.107565 0.25494,-0.434536 0.532713,0.01046 0.163144,0.261294 0.712464,-0.192758 1.041134,-0.182287 -1.028294,-0.54686 0.961253,-0.664893 1.165297,-0.651093 -0.133659,-0.258911 -0.274429,-0.482606 -0.242562,-0.787688 0.566965,0.243684 0.989315,0.388849 1.292268,-0.279377 0.07423,-0.163728 1.02691,-0.468333 0.668295,-0.685839 -0.186938,-0.113274 -0.830477,-0.170863 -1.064967,-0.166104 -0.779082,0.01476 -1.248522,-1.018045 -2.089916,-0.513543 -0.03075,-0.859558 -0.539364,-0.48118 -1.023066,-0.909054 -0.499886,-0.441202 -1.141041,-0.860988 -1.411665,-1.352635 0.05136,0.284135 0.204505,0.661087 0.05658,0.941417 -0.09987,0.152303 -0.244484,0.227024 -0.432845,0.223219 0.09038,0.194661 0.09038,0.388845 0,0.583033 -0.601638,-0.567326 -1.879183,0.141355 -2.261593,-0.808631 -0.202161,-0.501646 -0.428578,-0.558285 -0.922735,-0.407885 -0.4019,0.122319 -0.857578,-0.384563 -1.267089,-0.394085 0.170754,-1.163683 2.131317,-2.071787 2.87757,-2.775709 -1.008343,-0.522585 -1.658033,0.02998 -1.081573,-1.259351 0.152187,-0.340775 0.0046,-0.59969 0.394749,-0.822908 0.404783,-0.231783 0.945108,-0.101376 1.291845,-0.331734 0.726264,-0.482606 2.55459,0.201327 3.287543,0.431207 0.257784,0.05664 0.491813,0.164201 0.702968,0.322216 0.430462,0.317456 0.635467,0.169912 1.122013,0.221312 0.483241,0.05045 0.935575,0.648713 1.440688,0.479754 -0.497963,-0.469283 -0.953642,-2.195533 -0.201661,-2.608653 0.18171,-0.09995 1.63666,-0.448817 1.466866,-0.749137 0.997849,0.327448 1.988586,0.856225 2.926544,1.325981 0.362921,0.18181 2.039521,0.777217 2.486127,0.558761 0.341509,-0.168486 0.04471,-0.582556 0.513686,-0.582556 0.683018,0 1.377914,0.258438 2.058048,0.169912 0.49658,-0.06473 0.959831,-0.307461 1.466367,-0.307461 0.531291,0 0.982203,0.394557 1.523451,0.231783 0.483241,-0.144684 1.041172,0.0067 1.520607,0.09091 0.624972,0.109941 1.226149,-0.01284 1.852582,0.02714 1.041633,0.06663 2.579345,0.452146 3.393601,1.123228 0.350542,0.287949 0.491351,0.675844 1.016454,0.656328 0.44849,-0.01714 0.726763,-0.0081 1.112979,0.214177 0.483702,0.277474 1.256133,0.707251 1.484895,1.250306 0.06708,0.158964 -1.269434,0.611591 -1.52914,0.827194 -0.835206,0.692974 -2.13274,0.999483 -3.067815,1.618212 -0.433767,0.287469 -0.627855,0.49641 -0.731069,0.99758 -0.08987,0.438345 -0.276813,0.826241 -0.787615,0.775314 -0.507036,-0.05045 -0.922274,0.307935 -1.434038,0.258915 -0.559353,-0.05331 -1.085379,-0.186573 -1.654265,-0.178005 -0.750059,0.01142 -0.940764,0.943798 -1.000233,1.589655 -0.132697,1.437831 -0.969325,0.842424 -1.990046,1.297903 -0.966481,0.431679 -0.875646,-0.666323 -1.388831,-1.067546 -0.286347,-0.223219 -0.664451,0.177527 -0.880874,0.305559 -0.508457,0.302699 -0.998848,0.203702 -1.550552,0.089 -0.05139,0.236546 -0.02806,0.465 0.07085,0.685363 -0.445184,0.01142 -0.716769,0.439771 -1.003577,0.713916 -0.427578,0.408362 -1.074922,0.158965 -1.431654,0.656805 -0.506997,0.707728 0.878029,1.686749 -0.04421,2.148889 -0.411894,0.207039 -0.878989,-0.138022 -1.276622,0.140882 -0.458984,0.321262 -1.011188,0.353149 -1.551013,0.298417 -0.693013,-0.07044 -1.947724,-0.306032 -2.055704,0.702019 -0.2007,-0.240352 -0.495119,-0.466427 -0.778582,-0.597787 -0.351965,-0.162774 -0.603099,0.33459 -0.854734,0.19704 -0.271085,-0.14802 -0.129814,-0.587315 -0.352887,-0.661564 -0.183594,0.01618 -0.366265,0.0067 -0.546514,-0.0281 -0.208811,-0.133263 -0.260168,-0.378374 -0.451835,-0.51259 -0.527486,-0.369809 -1.349852,0.748183 -1.857848,0.753419 -0.406666,0.0043 -0.642078,-0.07853 -0.853734,-0.432634 -0.336281,-0.561613 -1.005499,-0.261771 -1.462099,-0.08853 -0.0123,-0.125648 -0.02383,-0.250823 -0.03267,-0.376948 -0.307258,0.185143 -1.121052,0.449767 -1.458755,0.247014 -0.480858,-0.288899 -0.939381,0.327451 -1.442111,0.0733 -0.562659,-0.284612 -0.635927,-2.220281 0.02383,-1.519692 0.01422,-0.230833 -0.0081,-0.458811 -0.06658,-0.683932"
       style="display:inline;fill:#ffffff;fill-opacity:1;stroke:none;stroke-width:0.384409"
       id="path10164"
       inkscape:connector-curvature="0" />
    <path
       d="m 171.89076,172.0608 c -0.16741,0.18276 -0.36054,0.33126 -0.58027,0.44596 0.36765,0.7063 1.142,0.008 0.58027,-0.44596"
       style="display:inline;fill:#ffffff;fill-opacity:1;stroke:none;stroke-width:0.384409"
       id="path10166"
       inkscape:connector-curvature="0" />
    <path
       d="m 171.85747,172.88323 c -0.0373,0.12518 -0.0373,0.25035 0,0.37695 0,-0.12565 0,-0.2513 0,-0.37695"
       style="display:inline;fill:#ffffff;fill-opacity:1;stroke:none;stroke-width:0.384409"
       id="path10168"
       inkscape:connector-curvature="0" />
    <path
       d="m 173.74096,176.2415 c -0.41663,-0.18324 -0.45945,0.21132 -0.43473,0.51449 0.0519,0.6392 0.51226,-0.0952 0.43473,-0.51449"
       style="display:inline;fill:#ffffff;fill-opacity:1;stroke:none;stroke-width:0.384409"
       id="path10170"
       inkscape:connector-curvature="0" />
    <path
       d="m 63.253773,163.65346 c 0.165988,-0.20798 0.199277,-0.43644 0.09987,-0.68488 0,0.46309 -0.113208,0.46309 -0.34247,0 0.2017,0.18562 0.282541,0.41359 0.242601,0.68488"
       style="display:inline;fill:#ffffff;fill-opacity:1;stroke:none;stroke-width:0.384409"
       id="path10362"
       inkscape:connector-curvature="0" />
    <path
       d="m 67.408863,108.18519 c -0.103675,0.15707 -0.179288,0.10566 -0.03344,0.34316 0.01076,-0.1147 0.0223,-0.22893 0.03344,-0.34316"
       style="display:inline;fill:#ffffff;fill-opacity:1;stroke:none;stroke-width:0.384409"
       id="path10900"
       inkscape:connector-curvature="0" />
    <path
       d="m 100.83149,133.44073 c 0.0628,0.22988 0.0504,0.32793 0.3429,0.27414 -0.1146,-0.0914 -0.22877,-0.18276 -0.3429,-0.27414"
       style="display:inline;fill:#ffffff;fill-opacity:1;stroke:none;stroke-width:0.384409"
       id="path10902"
       inkscape:connector-curvature="0" />
    <path
       d="m 123.88104,108.93909 c 0.007,0.1861 0.0866,0.33459 0.23779,0.44596 0.14604,-0.25986 0.0595,-0.58494 -0.13839,-0.78817 -0.0334,0.11376 -0.0666,0.22751 -0.0994,0.34221"
       style="display:inline;fill:#ffffff;fill-opacity:1;stroke:none;stroke-width:0.384409"
       id="path10904"
       inkscape:connector-curvature="0" />
    <path
       d="m 127.33841,108.56214 c -0.15269,0.28604 0.0485,0.57018 0.30914,0.68536 -0.15172,-0.20656 -0.25494,-0.43501 -0.30914,-0.68536"
       style="display:inline;fill:#ffffff;fill-opacity:1;stroke:none;stroke-width:0.384409"
       id="path10906"
       inkscape:connector-curvature="0" />
    <path
       d="m 144.49489,154.27569 c -0.0813,-0.16563 -0.17122,-0.32555 -0.27112,-0.48023 -0.30346,0.25035 -0.48132,0.74152 -0.39764,1.12704 0.21166,0.97426 0.99601,-0.0576 0.66876,-0.64681"
       style="display:inline;fill:#ffffff;fill-opacity:1;stroke:none;stroke-width:0.384409"
       id="path10908"
       inkscape:connector-curvature="0" />
    <path
       d="m 144.77074,145.57161 c -0.67775,0.56685 0.006,2.26645 0.0666,2.94657 -0.84947,-0.15753 -1.01688,2.67339 0.10468,2.57011 -0.49754,-0.34982 0.0334,-0.38694 0.0334,-0.78341 0,-0.47309 -0.27874,-0.91809 -0.1194,-1.39357 0.12128,-0.36076 0.43661,-0.67203 0.36196,-1.08229 -0.11651,-0.6411 0.17314,-0.2118 0.29158,-0.79721 0.11889,-0.5897 -0.54748,-1.18939 -0.40575,-1.64439 0.13889,-0.44453 0.97886,-1.36786 0.10894,-1.56443 0.35816,-0.27748 0.29823,-0.70821 0.0381,-1.02757 -0.86996,0.66966 -0.28588,1.88189 -0.47993,2.77619"
       style="display:inline;fill:#ffffff;fill-opacity:1;stroke:none;stroke-width:0.384409"
       id="path10910"
       inkscape:connector-curvature="0" />
    <path
       d="m 144.4611,145.29747 c -0.0571,0 -0.11413,0 -0.17122,0 0.0385,0.13374 0.0956,0.25986 0.17122,0.37694 0,-0.12564 0,-0.2513 0,-0.37694"
       style="display:inline;fill:#ffffff;fill-opacity:1;stroke:none;stroke-width:0.384409"
       id="path10912"
       inkscape:connector-curvature="0" />
    <path
       d="m 145.69302,160.61528 c -0.15934,0.0728 -0.2383,0.19846 -0.23784,0.37694 0.38906,0.10994 0.46802,-0.0157 0.23784,-0.37694"
       style="display:inline;fill:#ffffff;fill-opacity:1;stroke:none;stroke-width:0.384409"
       id="path10914"
       inkscape:connector-curvature="0" />
    <path
       d="m 145.55982,149.23829 c 0.0785,0.12041 0.19074,0.18847 0.3377,0.20561 -0.11271,-0.0685 -0.22545,-0.13708 -0.3377,-0.20561"
       style="display:inline;fill:#ffffff;fill-opacity:1;stroke:none;stroke-width:0.384409"
       id="path10916"
       inkscape:connector-curvature="0" />
    <path
       d="m 146.03545,148.51866 c -0.0923,0.16277 -0.16553,0.1128 0,0.34268 0,-0.1147 0,-0.22845 0,-0.34268"
       style="display:inline;fill:#ffffff;fill-opacity:1;stroke:none;stroke-width:0.384409"
       id="path10918"
       inkscape:connector-curvature="0" />
    <path
       d="m 148.16154,165.68694 c -0.97744,0.35887 0.89179,0.7382 0,0"
       style="display:inline;fill:#ffffff;fill-opacity:1;stroke:none;stroke-width:0.384409"
       id="path10920"
       inkscape:connector-curvature="0" />
    <path
       d="m 148.63717,164.86451 c -0.48705,0.0266 -0.16411,0.57399 0.0377,0.71963 -0.1051,-0.23512 -0.11748,-0.47452 -0.0377,-0.71963"
       style="display:inline;fill:#ffffff;fill-opacity:1;stroke:none;stroke-width:0.384409"
       id="path10922"
       inkscape:connector-curvature="0" />
    <path
       d="m 148.84644,163.49379 c 0.005,0.1147 0.0158,0.22893 0.0334,0.34316 -0.0112,-0.11471 -0.0223,-0.22894 -0.0334,-0.34316"
       style="display:inline;fill:#ffffff;fill-opacity:1;stroke:none;stroke-width:0.384409"
       id="path10924"
       inkscape:connector-curvature="0" />
    <path
       d="m 149.39341,168.15424 c -0.28584,0.10947 -0.34912,0.4374 -0.205,0.68537 0.27443,-0.14374 0.40809,-0.4117 0.205,-0.68537"
       style="display:inline;fill:#ffffff;fill-opacity:1;stroke:none;stroke-width:0.384409"
       id="path10926"
       inkscape:connector-curvature="0" />
    <path
       d="m 150.04503,169.07948 c -1.26613,-0.63063 -0.24257,1.33883 0,1.74767 0.38383,-0.84861 0.0142,-1.00424 0,-1.74767"
       style="display:inline;fill:#ffffff;fill-opacity:1;stroke:none;stroke-width:0.384409"
       id="path10928"
       inkscape:connector-curvature="0" />
    <path
       d="m 52.307588,100.7833 c -0.04328,-0.808156 0.843777,-0.822433 1.425926,-0.822433 0.686824,0 0.34816,-1.060407 0.319636,-1.439257 0.464712,0.231306 1.473017,0.278427 1.966252,0.129457 0.901824,-0.272719 1.633316,0.902388 2.518955,0.486889 0.204506,-0.09614 1.484934,-1.561573 1.836399,-0.973305 0.575998,0.961884 1.184825,0.572562 1.968635,-0.02045 -0.762898,-0.154683 -0.09272,-1.147027 -0.364304,-1.630113 -0.480896,-0.854795 -1.004538,-1.657238 -1.562008,-2.462063 -0.306758,-0.441674 0.08799,-1.44211 -0.796187,-1.177487 -0.738642,0.221316 -1.598104,-0.754849 -1.524413,-1.467335 0.05232,-0.504979 0.224034,-1.626304 -0.2278,-2.016579 -0.734375,-0.634436 -2.047132,-0.14659 -2.407669,-1.344547 -0.260629,-0.867169 0.532714,-1.742907 1.003115,-2.378769 0.338165,-0.456432 0.519875,-0.985206 0.780504,-1.486852 0.183132,-0.353629 0.567926,-1.148933 1.088262,-1.020901 0.675868,0.166579 0.615439,1.306944 1.354119,1.374527 0.420928,0.03855 0.841856,-0.277001 1.205737,-0.438822 0.44849,-0.19942 0.901285,-0.176098 1.375992,-0.241778 1.09964,-0.152779 0.89229,-1.044224 1.518684,-1.692937 0.758632,-0.784356 0.307259,-1.817159 1.419738,-2.449212 1.017377,-0.577797 1.433576,-1.29695 1.747946,-2.431125 0.230223,-0.829097 0.0077,-1.927577 1.012149,-2.269781 0.342931,-0.116607 0.760053,-0.193235 0.948875,-0.545434 0.265434,-0.495457 -0.377144,-0.606828 -0.375721,-0.856702 0,-0.300796 0.792882,-1.36025 0.97217,-1.635345 0.33582,-0.512594 1.15388,-0.789115 1.391714,-1.345973 -0.730569,-0.01426 -0.546014,-0.701543 -0.551742,-1.199856 -0.0073,-0.604925 -0.561237,-1.059927 -0.546014,-1.579183 0.02576,-0.908581 1.776007,-1.080397 2.279237,-1.666286 0.862768,-1.006144 -1.610981,-1.103715 -2.03952,-1.260777 -0.440456,-0.161344 -0.250173,-0.814816 -0.716308,-1.067542 -0.318213,-0.172769 -0.701546,-0.169912 -1.031638,-0.319836 0.139848,-0.364096 -0.01461,-0.572085 -0.327247,-0.738665 -0.332937,-0.178004 -1.288001,-0.733909 -1.031177,-1.168922 0.244022,-0.412167 0.419044,-0.851466 -0.05705,-1.183199 -0.292035,-0.20323 -0.777198,-0.634433 -0.356731,-0.994724 0.16741,-0.143261 1.150536,-0.806251 0.318175,-0.8805 -0.136004,-0.01238 -1.424966,-0.02283 -1.053511,-0.492124 0.465634,-0.588269 -0.153149,-0.544481 -0.519375,-0.829574 -0.456601,-0.355056 0.305336,-1.285048 0.60356,-1.468765 0.767204,-0.472612 1.568158,-0.110894 2.362463,0.06616 0.899901,0.200373 1.79123,0.425494 2.687787,0.633959 0.764359,0.177528 1.218115,-0.298893 1.895867,-0.535439 0.591221,-0.206085 1.214309,-0.179431 1.799303,-0.366953 0.182671,-0.05854 1.225226,-1.119899 1.145346,-1.257448 -0.216883,-0.372662 0.880374,-0.942371 1.175292,-1.181769 0.236835,-0.191805 0.493697,-0.404552 0.786194,-0.506882 0.245445,-0.08615 0.36292,0.120416 0.566964,0.05854 0.683941,-0.206558 0.457562,0.675841 0.787155,1.083726 0.496579,0.613971 0.663989,1.411177 1.177675,2.014677 0.593104,0.696306 1.785503,0.769125 2.527989,1.316462 0.251595,0.185619 0.600715,0.534486 0.251595,0.813867 -0.668718,0.535435 -0.492735,0.619679 -0.224956,1.417838 0.238757,0.711538 0.409972,1.400229 0.980281,1.933289 0.433768,0.405978 1.217116,0.44929 1.578614,0.837185 0.176444,0.189426 0.103214,0.511164 0.211156,0.736286 0.121781,0.254156 0.343892,0.437396 0.51653,0.653476 0.585032,0.729147 -0.05993,0.874307 -0.508919,1.273627 -0.397632,0.353149 -1.034944,1.079917 -1.442571,0.162771 -0.310103,-0.697733 -0.830939,-0.790541 -1.53533,-0.265577 0.247329,0.28176 0.339126,0.602546 0.436151,0.954272 0.108903,0.393604 0.493696,0.592075 0.749098,0.876214 0.548897,0.609685 0.392404,1.296473 0.891828,1.826201 0.295842,0.313646 -0.203121,1.598695 0.62924,1.483518 0.362459,-0.04997 0.237334,-0.390275 0.50419,-0.482133 0.418545,-0.144688 0.573615,0.332687 0.733875,0.589222 0.228301,0.366476 1.040211,1.148453 1.464945,1.233172 0.507496,0.101377 0.83951,-0.225598 1.265205,0.258915 0.258246,0.294131 0.685862,0.185143 0.959331,0.422639 0.185016,0.16039 0.206889,0.450719 0.259207,0.670128 0.08799,0.368383 0.507497,0.372189 0.814755,0.507359 0.843316,0.372665 1.717039,0.54305 2.355812,1.289811 -0.948875,0.05616 -1.178598,1.398798 -1.833093,1.85666 -0.06277,0.04378 0.05378,0.717722 -0.02076,0.876214 -0.267779,0.564947 0.12082,0.805299 0.01538,1.338355 -0.09606,0.487369 -0.921774,1.001389 -0.368609,1.57871 0.330091,0.345061 1.622359,1.314083 1.622359,0.621108 0.575537,0.358862 1.271356,0.871932 1.902517,1.106572 0.749136,0.278427 1.081112,0.882876 1.769857,1.294093 0.203545,0.121366 1.299879,1.002339 1.586687,0.887639 0.671601,-0.268909 1.32844,0.281756 1.899667,0.575418 0.24353,0.125171 1.07304,0.138022 1.20524,0.300319 0.46041,0.564947 0.52414,0.718199 1.32894,0.88145 0.42331,0.08615 0.97456,0.525918 1.39452,0.21465 0.56032,-0.4155 0.89137,-0.08709 1.5168,0.188476 -0.40524,-1.076111 2.28543,0.01714 2.46995,0.0733 0.74106,0.226075 0.26066,1.206995 0.94272,1.36501 0.58453,0.135169 1.47205,0.429777 1.83259,0.939991 0.28873,0.408362 0.88514,-0.178004 1.22999,-0.207035 0.84424,-0.07092 0.42997,1.202235 1.54437,0.745803 0.32817,-0.134693 1.76651,0.362194 2.0823,0.552096 0.81334,0.487846 0.99835,0.0023 1.74607,-0.247967 0.0704,0.538296 0.9446,1.075162 1.34746,0.671559 0.15265,-0.153256 1.37884,0.0023 1.64566,0.0081 0.57123,0.01284 0.68586,-0.02714 0.77005,-0.641575 0.14411,-1.04708 -0.34862,-1.454488 -0.7491,-2.350691 -0.21977,-0.491652 -0.15603,-1.108474 -0.10986,-1.63154 0.0552,-0.634432 -0.0961,-1.125607 -0.13082,-1.744336 0.63497,-0.04426 1.36031,-0.58208 1.99481,-0.397413 1.24568,0.362194 0.15554,1.906633 0.68775,2.555823 0.0956,0.116607 0.56408,0.391702 0.41854,0.594931 -0.22449,0.31317 -0.43472,0.273668 -0.18547,0.722008 0.54886,0.986159 1.28181,0.956171 2.23783,1.08087 0.64304,0.08377 1.04164,0.653472 1.67945,0.585889 0.26732,-0.0281 0.69632,-0.03663 0.92842,-0.194188 0.24118,-0.163724 0.713,-0.77531 1.05924,-0.533056 0.86757,0.606355 1.94869,0.407408 2.94273,0.369332 0.30345,-0.01142 0.8081,-0.395987 0.9784,-0.192281 0.26159,0.313647 1.13958,0 1.52057,-0.04521 0.9546,-0.112801 -0.14935,-0.967119 -0.0238,-1.37929 0.41759,-1.364533 -1.02356,-0.79911 -1.60575,-1.438305 -0.31772,-0.348866 -0.44803,-1.064213 0.23829,-0.897629 0.54982,0.133739 0.7187,-0.134217 1.2024,-0.247967 0.72726,-0.171343 2.06139,0.206558 1.7627,-1.04946 -0.12604,-0.528773 1.39691,-1.059931 1.45876,-1.781939 0.0989,-1.139411 1.56958,-0.57827 2.23022,-1.226507 0.52987,-0.519256 0.83805,-1.135605 1.4307,-1.607744 0.2183,-0.174195 0.44045,-0.365523 0.68348,-0.504502 0.20927,-0.119936 1.22761,0.629677 1.44211,0.755801 -0.25256,-0.253202 -0.16026,-0.260817 0.27731,-0.02141 0.34009,0.143258 0.73626,0.382656 1.12059,0.366953 0.39287,-0.01618 0.33102,-0.485939 0.47325,-0.736289 0.25351,-0.447387 1.11963,-0.729147 1.56912,-0.909531 0.0994,-0.0395 1.13008,0.850039 1.24948,0.958078 -0.68398,0.299846 -0.62736,0.390275 -0.45899,0.907628 0.11936,0.366476 0.90179,-0.275572 1.07731,-0.325549 -0.14604,0.5026 0.74341,0.821006 0.58311,1.219849 -0.24544,0.606351 -0.49274,0.812437 -0.61832,1.419265 -0.0899,0.43216 0.79146,0.05616 0.94176,0.01426 0.6402,-0.177528 1.11298,0.474991 1.76409,0.276997 0.5584,-0.169909 1.02976,0.581607 1.02976,1.056598 0,0.177528 0.26159,0.323169 0.23257,0.455482 -0.0694,0.318406 -0.58073,0.702492 -0.79573,0.917619 -1.15957,1.160354 0.56554,1.628683 0.7672,2.727167 -0.76147,0.31317 -1.00642,-0.732957 -1.62382,-0.900967 -0.59118,-0.160867 -2.04232,0.350297 -2.42427,0.839569 -0.29204,0.374568 -0.53795,0.690594 -0.89468,1.011856 -0.13269,0.212748 -0.32436,0.295565 -0.57453,0.248921 -0.21597,0.175148 -0.004,0.302702 -0.34674,0.502599 -0.36815,0.21322 -0.69063,-0.03333 -0.83236,0.503549 -0.10418,0.394557 -0.0457,0.843374 0.0623,1.230316 0.0823,0.295088 0.30964,0.49784 0.39763,0.773888 0.11748,0.368856 -0.38621,0.579701 -0.26397,0.979017 0.29819,0.969975 -1.43358,1.603458 -1.05832,2.415422 0.13462,0.291278 0.45188,0.393128 0.57173,0.723435 0.1836,0.506881 -0.13365,1.117519 -0.35054,1.55967 -0.53602,1.092294 -1.02975,2.305954 -1.01926,3.546263 -0.34439,-0.27367 -1.23141,-0.537817 -1.66234,-0.649188 -0.21642,0.01522 -0.43046,0.04569 -0.64257,0.09138 -0.27447,-0.05569 -0.34674,-0.296987 -0.67303,-0.230357 0.35385,0.969025 0.55124,1.831905 0.60691,2.859475 0.0234,0.43311 0.0737,1.80097 -0.71154,1.21842 0.12128,0.93713 0.0466,1.6244 0.41712,2.50966 0.13174,0.31459 0.43899,1.37072 -0.2792,0.95141 -0.35911,1.41927 -0.23829,0.54924 -1.19908,0.20608 0.059,0.277 -0.0552,0.54829 -0.2754,0.71963 -0.30818,-0.72058 -0.36622,-1.53445 -0.51414,-2.29643 -0.17741,-0.91667 -0.74672,-1.70864 -0.9917,-2.60866 -0.18974,-0.69726 -0.45326,-1.3988 -0.58549,-2.1051 -0.1151,-0.61778 -0.81284,0.32269 -1.19525,-0.0148 0.12078,0.40646 0.28773,0.71725 -0.0828,1.05041 -0.39809,0.35791 -0.14696,0.7796 -0.0714,1.20557 0.0728,0.40836 -0.40666,0.90096 -0.80383,0.60492 -0.38764,-0.28842 -0.26444,-0.86145 -0.75433,-1.07944 0.0438,0.23083 0.0323,0.45976 -0.0327,0.68536 -0.30157,-0.70202 -0.60549,-1.40213 -0.89179,-2.11081 -0.28827,-0.71392 0.61259,-1.42594 0.41093,-2.07036 0.35435,0.04712 0.98835,0.158965 0.92273,-0.411217 0.23065,0.360767 0.56124,-0.188 0.88941,0.103279 0.10606,-0.899537 1.38649,-1.806684 0.82287,-2.878989 0.2145,0.01999 1.10867,-0.01857 0.68774,-0.448817 -0.49277,-0.504025 -1.40217,-0.793401 -2.09087,-0.784355 -0.60975,0.0081 -1.2157,0.122315 -1.82452,0.02426 -0.8,-0.128504 -1.4987,0.101376 -2.29635,0.0023 -1.00642,-0.124222 -3.54867,0.146118 -3.40171,-1.37643 0.0628,-0.646334 -0.25017,-2.815692 -1.27658,-2.728592 0.16456,0.292227 0.0818,0.568275 -0.0335,0.857174 -0.47709,-0.264147 -1.11155,-0.343631 -1.4521,-0.811484 -0.28493,-0.391705 -0.44569,-1.156071 -1.08304,-1.038988 0.22069,0.19942 0.38099,0.439299 0.4804,0.719629 -0.35623,-0.137549 -0.75675,-0.146114 -1.10252,-0.318883 -0.21927,-0.109468 -0.31437,-0.448816 -0.51892,-0.61254 -0.27489,-0.219889 -0.59549,-0.370762 -0.88037,-0.576371 -0.37861,0.673461 0.48274,0.352676 0.65161,0.924761 -1.07969,0.409788 -1.77651,1.946616 -0.46563,2.466345 0.52318,0.207512 0.712,0.774838 1.16149,1.071828 0.32959,0.217983 0.94553,-0.163723 0.99739,0.300324 0.0746,0.676317 1.00692,0.420259 0.566,1.130842 -0.29776,-0.156108 -0.77862,-0.107088 -1.09826,-0.07663 -0.4328,0.04141 -0.53267,0.06997 -0.57596,0.469283 -0.0452,0.41693 -0.45898,1.146553 -0.82759,0.498313 -0.0404,0.706778 -0.60741,1.266016 0.10463,1.850476 0.52176,0.427874 1.16384,0.697733 1.82737,0.746756 1.33986,0.100423 -0.80714,3.237376 0.7358,3.352076 0.45325,0.0338 0.18501,0.59731 0.2868,0.94808 0.039,0.13279 0.42093,0.1842 0.48609,0.20371 0.3648,0.10899 -0.004,0.63158 0.0219,0.84908 0.0519,0.44025 0.43285,0.71963 0.44376,1.16702 0.0142,0.60017 0.0115,0.93238 0.31395,1.4721 0.30818,0.55114 0.62828,1.31075 0.33674,1.88426 -0.1332,-0.0852 -0.2697,-0.16515 -0.40905,-0.23987 0.1051,0.2294 0.9094,1.13179 0.63162,1.36263 -0.29534,0.24653 -0.69535,-0.19371 -0.70343,-0.47166 -0.0633,0.37218 -0.34439,0.69821 -0.5803,0.2056 -0.24825,-0.51877 0.05,-1.17225 0.0334,-1.7134 -0.32344,0.15992 0.0281,0.48689 -0.34293,0.78769 0.0865,-0.36267 -0.14557,-0.70916 0.0334,-1.06183 -0.64689,0.49355 -0.059,2.09082 -0.17076,2.77571 -0.14792,-0.4531 0.0281,-1.18368 -0.40905,-1.50779 0.005,0.0495 0.11321,1.27267 -0.0908,1.1375 -0.0647,-0.0866 -0.12275,-0.17705 -0.1736,-0.27176 -0.39195,-0.55352 -0.0471,0.82196 -0.38672,-0.21465 0.15457,0.24511 0.16599,0.49641 0.0335,0.75389 -0.46944,-0.42501 -0.45803,-1.34073 -0.51369,-1.919 -0.087,-0.89002 -0.78812,-0.71916 -1.06062,-1.43926 0.11413,0.72153 1.2875,0.58208 0.73579,1.50589 -0.62262,1.04089 -1.20335,1.46495 -2.38149,1.81858 -0.62451,0.188 -1.4797,0.51545 -1.61859,1.24555 -0.0946,0.49641 0.37242,2.11986 0.76294,2.48919 -0.24068,0.1861 -0.61452,0.37695 -0.73011,0.67822 -0.17598,0.45929 0.27159,0.49499 -0.27681,0.93143 -0.654,0.5202 -0.90133,1.52302 -1.69898,0.48118 0.11321,0.3917 0.57078,0.58018 0.89372,0.75389 -0.99927,0.50022 -2.06947,1.0071 -3.18625,1.16464 0.35196,-0.19228 0.45045,-1.04708 -0.10795,-0.85432 -0.57219,0.19751 -1.08018,1.02376 -0.8861,1.60822 0.0713,-0.22084 0.59691,-0.95332 0.78954,-0.58256 -0.34912,0.1 -0.88514,1.01234 -1.21904,1.33836 -0.75009,0.73152 -1.13058,1.62392 -1.65234,2.52346 -0.52749,0.91 -1.14769,1.81287 -2.13512,2.26216 -0.84709,0.38552 -0.94319,1.51446 -1.77647,1.89474 0.55266,0.33268 -2.12893,1.58394 -2.42716,1.85285 -0.29107,0.26273 -0.60071,0.64538 -0.7534,1.0071 -0.24637,0.58398 0.53271,0.73248 0.27208,1.39928 -0.5156,1.32027 -2.07853,1.20604 -3.221,1.26268 -0.46517,0.0233 -0.51795,0.35839 -0.62259,0.75437 -0.11417,0.43216 -0.57219,1.20081 -0.53982,1.60536 -0.36815,-0.18276 -0.37622,-0.55495 -0.51369,-0.89096 0.15123,0.38694 -0.0871,0.74533 -0.20454,1.09657 0.25398,-1.1594 -1.423083,-0.50212 -1.721307,0.06 -0.437573,0.82387 -1.002155,2.08417 -0.677291,3.00322 0.267318,0.7558 0.57646,1.57632 0.587416,2.35021 0.01922,1.32598 0.278235,2.3783 0.645422,3.66811 -0.111786,-0.22274 -0.640694,-1.28933 -0.58457,-0.41122 -0.306759,-0.6292 -0.296303,0.18657 -0.06373,0.32936 0.298724,0.18276 0.588376,0.20465 0.79242,0.53067 0.374338,0.59779 0.05186,2.15318 -0.04375,2.79999 -0.169832,1.15559 -0.851389,2.03419 -1.19336,3.12172 -0.266856,0.84671 0.132199,2.07322 -0.486123,2.77904 0.105597,-0.1028 0.219766,-0.19371 0.342931,-0.27366 0.384332,0.44976 0.388138,1.09276 0.383371,1.65057 -0.0085,0.91619 0.199278,1.82144 0.168371,2.73573 -0.241601,-0.0186 -0.481318,-0.0524 -0.718191,-0.1028 0.926041,0.29937 -0.02037,0.15135 -0.185516,0.10708 -0.344353,-0.0928 -0.846122,-0.27033 -1.058278,0.15278 -0.109864,0.21989 -0.282502,0.48642 -0.151726,0.73629 0.195011,0.37362 -0.353387,0.73819 -0.526525,1.02518 -0.336742,0.55686 -0.994543,1.77718 -0.0369,2.18364 0.24829,0.10566 0.560314,0.0747 0.80476,-0.0228 0.171715,-0.069 0.53083,0.55257 0.640694,0.64967 -0.941763,-0.97426 -2.510382,-0.36553 -3.529181,0.13707 -1.325596,0.65347 -0.719652,1.89616 -1.357464,2.90231 -0.322942,0.50783 -0.956486,0.85718 -1.489661,1.09515 -0.839973,0.37504 -1.317985,-0.003 -1.947224,-0.57018 -0.290152,-0.26225 -2.532294,-2.6277 -1.816948,-2.80998 -0.630661,0.22607 -0.874684,-1.03661 -1.098218,-1.56776 -0.317252,-0.75485 -0.656839,-1.64725 -0.4433,-2.47587 0.184555,0.29747 0.259245,0.64824 0.27589,0.99377 0.08038,-0.82576 -0.04709,0.79531 0.446607,0.85718 -0.169794,-0.45072 -0.03994,-0.96427 -0.242562,-1.40499 -0.173138,-0.37695 -0.549821,-0.58065 -0.580266,-1.02804 0.01615,0.87621 -0.27539,0.0271 -0.256362,-0.16135 0.04421,-0.44358 -0.211194,-0.5816 -0.4162,-1.05993 -0.365265,-0.85146 -0.657301,-1.74005 -0.983126,-2.60722 -0.122703,-0.3265 -2.123705,-3.58434 -2.01142,-3.74473 -1.260438,-1.55254 -2.132278,-3.42015 -2.566506,-5.36581 -0.15411,-0.69202 -0.242101,-1.32265 -0.490391,-1.97279 -0.165065,-0.4312 -0.343392,-0.83242 -0.518913,-1.25602 -0.132237,-0.31936 -0.625472,-1.1356 -0.05328,-0.9319 -0.633045,-0.21179 -0.487046,-1.09134 -0.822828,-1.54206 -0.213078,-0.28652 -1.271355,-0.85717 -0.375759,-1.02804 -0.52937,0.24178 -0.795727,-0.39027 -0.947915,-0.77769 -0.119397,-0.30413 -0.216922,-0.62016 -0.368148,-0.91049 -0.155071,-0.29746 -0.6302,-0.43501 -0.01999,-0.50545 -0.300608,-0.0761 -0.555548,-0.50498 -0.546015,-0.80054 0.01,-0.3065 -0.327247,-0.40074 -0.563159,-0.73295 -0.569809,-0.80244 -0.944608,-1.75909 -1.244716,-2.69052 -0.208811,-0.64776 -0.385755,-1.32741 -0.385755,-2.01277 0,-0.71392 -0.386215,-1.38071 -0.499385,-2.08226 -0.106097,-0.65728 -0.47659,-1.22032 -0.675868,-1.85285 -0.130353,-0.4136 -0.87849,-1.78098 -0.194549,-1.51398 -0.124626,-0.15801 -1.070656,-1.38119 -0.237834,-0.92476 -0.135543,-0.50165 -0.740526,-0.82243 -0.513648,-1.40499 0.115554,0.0895 0.229723,0.18086 0.342432,0.27414 0.01999,-0.2927 -0.08322,-0.53258 -0.309142,-0.7201 0.49558,-0.19514 0.232568,-0.67108 0.137926,-1.02756 -0.02922,0.28842 -0.131275,0.54923 -0.34247,0.75389 -0.370493,-0.59731 -0.257323,-1.94185 0.580266,-0.99377 -0.137427,-0.33602 -1.38122,-0.54781 -0.989777,-1.02043 0.136504,-0.16468 -0.437111,-0.8429 -0.500846,-1.05279 -0.170255,-0.56209 -0.189783,-1.11704 -0.07373,-1.69293 0.182172,-0.90049 0.719652,-1.84238 0.359576,-2.76429 -0.04659,-0.11994 -0.28773,-1.69627 -0.74483,-1.11228 0.156954,-0.41312 0.06516,-0.42502 -0.275852,-0.0343 0.423311,-0.50355 -0.307258,-0.65633 -0.183594,-1.02757 0.07992,-0.24083 0.145537,-0.49879 0.181672,-0.74961 0.05328,-0.36553 1.282811,-0.59588 1.509651,-1.03232 -0.898441,0.67346 -2.966984,0.15039 -1.574309,-0.85718 -0.473284,0.21084 -1.028332,-0.12137 -0.68494,-0.65062 0.293958,-0.4531 0.761514,0.008 1.060661,-0.44596 -0.468479,0.12042 -1.449721,-0.0509 -1.712734,-0.51402 -0.02998,0.23369 -0.48893,0.32412 -0.480396,0.27415 -0.04136,0.22464 0.294919,0.26082 0.303453,0.60635 0.01192,0.46547 -0.318675,0.60588 -0.712502,0.72962 0.08849,0.11709 0.180288,0.23131 0.27589,0.34316 -0.274929,-0.0733 -0.474707,0.0857 -0.551742,0.34268 0.966481,0.29937 1.383603,0.9319 0.747675,1.83048 -0.225917,0.31841 -0.102252,0.76342 -0.540786,0.92857 -0.532214,0.20037 -1.011649,0.55495 -1.496312,0.84671 -0.857117,0.51544 -1.832631,1.15036 -2.869036,0.81148 -1.044939,-0.34125 -2.285389,-1.32217 -2.905133,-2.22361 -0.922735,-1.34074 -2.297766,-2.18316 -3.376494,-3.36017 -0.283963,-0.30984 -1.090146,-1.36406 -0.158877,-1.49399 0.253979,-0.0352 0.266357,0.45167 0.457562,0.55542 0.365266,0.19752 1.038289,0.0409 1.104407,-0.43025 0.359115,0.50688 2.022876,-0.44643 2.359618,-0.78816 0.292035,-0.29699 0.236873,-0.75723 0.446606,-1.09658 0.221189,-0.35648 0.793343,-0.59588 0.30918,-1.02804 -0.244022,0.24178 0.01346,0.81434 -0.459945,0.78816 -0.510841,-0.0286 -0.927002,0.0704 -1.421198,0.23798 -0.420467,0.14278 -0.585494,0.53496 -1.064467,0.51211 -0.583572,-0.0281 -1.163875,-0.30841 -1.672794,-0.57304 -0.507497,-0.26415 -1.082534,-0.49403 -1.543402,-0.83052 -0.367688,-0.26843 -0.393827,-0.93571 -0.8314,-1.09277 -1.479706,-0.53496 0.252557,-1.68151 0.69109,-2.02276 -0.789076,-0.0895 -1.306106,1.42069 -2.088494,1.06183 0.151227,-0.23607 0.162644,-0.47594 0.03614,-0.72201"
       style="display:inline;fill:#ffffff;fill-opacity:1;stroke:none;stroke-width:0.384409"
       id="path10948"
       inkscape:connector-curvature="0" />
    <path
       d="m 69.32568,109.59018 c -0.114169,0.0343 -0.2283,0.069 -0.342931,0.10328 0.140309,-0.14754 0.192128,-0.21703 0.342931,-0.10328"
       style="display:inline;fill:#ffffff;fill-opacity:1;stroke:none;stroke-width:0.384409"
       id="path10950"
       inkscape:connector-curvature="0" />
    <line
       x1="83.12851"
       y1="60.484104"
       x2="83.12851"
       y2="60.449825"
       id="line11166"
       style="display:inline;fill:#ffffff;fill-opacity:1;stroke:none;stroke-width:0.384409"
       inkscape:r_cx="true"
       inkscape:r_cy="true" />
    <path
       d="m 78.81497,53.32208 c -0.02499,-1.024707 -0.518414,-0.267956 -0.889907,-0.856697 1.263283,0.603495 2.069004,-2.205055 3.386989,-1.644867 -0.832361,0.833856 -1.664722,1.667712 -2.497082,2.501564"
       style="display:inline;fill:#ffffff;fill-opacity:1;stroke:none;stroke-width:0.384409"
       id="path11168"
       inkscape:connector-curvature="0" />
    <path
       d="m 79.085632,53.8361 c -0.697779,-0.642047 0.866573,-1.832862 1.269933,-2.17459 0.319137,-0.270812 0.677291,-0.6806 1.056856,-0.864316 0.860884,-0.417403 1.298457,0.03333 2.05851,0.263673 -1.255672,1.256495 -2.511344,2.51299 -3.766977,3.769484 C 79.50606,54.490049 79.393351,54.103584 79.085632,53.8361"
       style="display:inline;fill:#ffffff;fill-opacity:1;stroke:none;stroke-width:0.384409"
       id="path11170"
       inkscape:connector-curvature="0" />
    <path
       d="m 80.764615,56.234862 c 1.281812,-1.282192 2.663531,-2.517271 3.854507,-3.883707 0.373838,-0.428827 0.648267,-0.05045 0.912241,0.261291 0.367188,0.434063 0.726302,-0.59826 1.192398,0.05854 -1.120091,1.120852 -2.240681,2.241701 -3.360772,3.362553 -0.259245,0.258915 -0.747714,1.056598 -1.206698,0.749136 -0.516992,-0.345538 -0.780965,-0.38266 -1.391676,-0.547814"
       style="display:inline;fill:#ffffff;fill-opacity:1;stroke:none;stroke-width:0.384409"
       id="path11172"
       inkscape:connector-curvature="0" />
    <path
       d="m 82.885899,59.387523 c -0.644961,-0.67965 3.310876,-3.929401 3.733726,-4.352516 -0.235451,0.67965 -0.804299,0.694404 -1.043555,1.243167 -0.275852,0.633006 0.01461,0.535439 -0.734836,0.744377 0.189283,0.338876 0.320097,1.219372 -0.07896,1.483523 -0.384294,0.254152 -0.93223,-0.09281 -1.349852,0.07615 -0.761937,0.307458 1.063045,1.695312 0.02576,1.593936 0.110825,0.302226 0.2012,0.610161 0.270663,0.924285 -0.700624,-0.28509 -0.611672,-1.117516 -0.822866,-1.712923"
       style="display:inline;fill:#ffffff;fill-opacity:1;stroke:none;stroke-width:0.384409"
       id="path11174"
       inkscape:connector-curvature="0" />
    <path
       d="m 82.990535,57.228636 c -0.178827,-0.08995 -0.350043,-0.192758 -0.513647,-0.308411 1.415932,-1.416412 2.831403,-2.832825 4.247373,-4.249238 -0.396672,0.804349 0.119397,2.140324 -0.468018,2.728116 -1.191476,1.192245 -2.382913,2.384962 -3.57485,3.577203 -0.500385,-0.768649 0.891791,-1.126561 0.309142,-1.74767"
       style="display:inline;fill:#ffffff;fill-opacity:1;stroke:none;stroke-width:0.384409"
       id="path11176"
       inkscape:connector-curvature="0" />
    <path
       d="m 84.807444,52.191237 c -1.211426,1.211281 -2.422353,2.415895 -3.579116,3.677149 -0.591183,0.644431 -1.652805,-0.292232 -1.524374,-1.038512 0.078,-0.450719 0.788576,-0.789114 1.086339,-1.087058 0.637351,-0.637765 1.275162,-1.276007 1.912512,-1.913773 0.176943,-0.177051 0.729147,-1.056598 1.020221,-0.666323 0.366727,0.492129 0.615478,0.642048 1.084418,1.028517"
       style="display:inline;fill:#ffffff;fill-opacity:1;stroke:none;stroke-width:0.384409"
       id="path11178"
       inkscape:connector-curvature="0" />
    <path
       d="m 123.05771,86.836211 c 0,-0.279381 0.1603,-0.29937 0.3339,-0.44596 0.26209,-0.220363 -0.007,-0.721056 0.27731,-0.927618 0.60975,-0.44453 0.84566,-1.483042 1.27086,-2.098438 0.46567,-0.673938 1.11297,-1.306945 1.98958,-1.291238 0.21496,0.0038 0.92366,0.09661 1.01215,0.345534 0.0804,0.226075 -0.13178,0.545911 0.1774,0.644431 0.53556,0.170389 1.16672,0.107089 1.72131,0.107089 0.33436,0 0.51415,0.539717 0.8818,0.211794 0.2973,-0.266054 0.37718,-0.38647 0.80668,-0.255582 0.56266,0.171815 1.26805,0.316503 1.25805,0.99282 -0.0111,0.760561 -0.0161,1.533492 1.01738,1.472571 0.95933,-0.05663 0.68252,0.801493 0.74295,1.364537 0.0254,0.232259 0.58737,0.865742 0.32056,0.996626 -0.63355,0.309841 -1.24045,0.372665 -1.86923,0.135646 -0.26017,-0.09805 -0.83901,0.25225 -1.14961,0.271289 -0.46564,0.02856 -0.95411,0.03903 -1.4207,0.02522 -0.71297,-0.02045 -1.24902,-0.670133 -1.90206,-0.282714 -0.50703,0.301273 -1.22711,0.811487 -1.87161,0.575418 -0.55601,-0.203702 -0.8585,-0.651569 -1.54675,-0.607781 -1.16245,0.07377 -1.17148,-0.791022 -2.04997,-1.23365"
       style="display:inline;fill:#ffffff;fill-opacity:1;stroke:none;stroke-width:0.384409"
       id="path11372"
       inkscape:connector-curvature="0" />
    <path
       d="m 38.813949,36.941964 c 0.284885,-0.520209 0.01345,-1.370721 0.994043,-1.370721 0.764359,0 1.514879,0.42835 2.283505,0.307938 0.554586,-0.0871 0.67875,-0.488322 0.568848,-0.953319 -0.04136,-0.175148 -0.06658,-0.368383 0.15507,-0.428827 0.51557,-0.141355 -0.03267,-0.632053 0.521759,-0.125648 -0.232106,-0.157539 -0.405705,-0.404079 -0.446607,-0.684886 0.161222,-3.85e-4 0.321059,0.01046 0.480396,0.03379 -0.240217,-0.515923 -0.825249,-0.04331 -1.199087,-0.342681 0.631661,-0.666323 1.597181,0.09519 2.326328,-0.205609 -0.345776,-0.271762 -0.0369,-0.477847 -0.279657,-0.867169 -0.209311,-0.336019 -0.544631,-1.18082 -0.02768,-1.435452 0.498463,-0.245588 0.930347,0.470712 1.42166,0.357435 0.67729,-0.156109 1.507729,-0.842421 1.829287,-1.447823 0.380027,0.294611 0.636389,0.724865 1.007382,1.030897 0.466096,0.384562 0.269202,0.621585 -0.224995,0.987585 -0.672062,0.49784 -0.474206,0.384563 0.07373,0.757228 0.239718,0.163251 0.390021,0.542101 0.689207,0.616826 0.345315,0.08662 0.68444,-0.156589 1.022605,-0.171342 -0.298225,0.321738 -0.962676,1.237935 -1.403131,1.267919 0.492773,-0.434063 -1.303685,-1.096104 -1.712273,-1.130847 -0.980282,-0.08377 -1.556242,0.395511 -1.607637,1.233649 -0.73007,-0.775314 -0.359576,1.096577 -0.147421,1.408798 0.28823,0.425018 0.931769,-0.03141 1.28135,-0.0633 0.624511,-0.05664 1.088224,0.248444 1.74318,-0.146114 0.0096,0.126125 0.02037,0.251296 0.03267,0.376948 0.327208,-0.124222 0.718191,-0.289852 1.074922,-0.188953 0.402861,0.114228 0.487047,0.547337 0.829978,0.711538 0.503191,0.240828 1.520568,-0.504975 1.956257,-0.753896 0.48943,-0.279853 0.357193,0.251777 0.584071,0.396464 0.205467,0.05569 0.413317,0.09185 0.624972,0.108992 0.0923,0.125171 0.16076,0.262244 0.205005,0.410737 0.655418,0.481657 1.204315,-0.128981 1.883489,0.685363 0.130814,-1.21747 2.144156,-0.743428 2.923238,-0.752469 0.402399,-0.0048 1.137236,-0.565424 1.448299,-0.241782 0.261591,0.272242 0.230684,0.596837 0.333437,0.927141 0.133659,0.427874 0.659223,0.704398 0.911779,1.06088 -0.762936,0.0048 0.02691,1.081823 0.214039,1.317416 0.270163,0.340302 0.644001,0.448816 0.951259,0.06711 0.323903,-0.402173 0.839472,-0.193712 1.233299,-0.07472 0.943186,0.284139 1.562469,0.369809 1.563891,1.474 0,0.38647 0.673946,1.704362 0.963598,1.882363 0.274468,0.168963 0.07373,0.593981 0.193127,0.842424 0.173138,0.360288 0.461829,0.391225 0.698702,0.665847 0.191205,0.221788 -0.161221,0.682029 -0.38956,0.732479 -0.181211,0.03998 -0.47513,-0.257012 -0.647307,-0.313174 -0.273007,-0.08948 -1.446415,-0.524964 -1.678983,-0.267956 -0.377643,0.418833 -1.44876,0.899536 -2.008114,0.664897 0.892752,-0.993774 -1.317984,-0.913817 -1.850198,-0.48356 -0.484663,0.391225 -0.946992,0.417403 -1.206699,1.027087 -0.276351,0.648713 -1.208082,0.326498 -1.646154,0.812914 -2.208353,2.451591 -3.308493,-1.691507 -2.990279,-3.479632 0.222573,-1.250309 -0.587415,-0.153256 -1.105868,-0.618729 -0.204967,-0.18419 0.105597,-0.928567 0.04186,-1.195097 -0.09418,-0.393131 -1.116785,-0.898583 -1.456833,-1.004718 -1.096334,-0.341255 -1.544401,1.39309 -2.162723,2.016102 -0.328631,0.33078 0.260168,0.613966 0.388138,0.869076 0.331975,0.65918 -0.372416,1.022804 -0.908935,0.700589 -0.396211,-0.237972 -1.136275,-0.04759 -1.501579,0.171339 -0.510841,0.306985 -0.208311,0.684886 -0.03575,1.086105 0.520336,1.211757 -1.132469,0.259868 -1.416432,0.03141 -0.561237,-0.452146 -0.921774,0.07948 -1.50965,0.409315 -0.316753,0.177524 -0.900363,0.129453 -0.822367,0.651089 -0.53698,-0.1147 -0.408549,0.633483 -1.002154,0.08853 -0.62355,-0.572089 -1.121551,-1.755761 -0.65115,-2.572007 0.596949,-1.035179 1.622398,-2.099392 0.351042,-2.997502 -0.988853,-0.69821 -0.07039,-2.675287 -1.427848,-2.703364 -0.386216,-0.0081 -0.89848,0.120412 -1.083957,-0.306985 -0.249712,-0.575418 -0.945569,-0.278428 -1.254711,-0.861937"
       style="display:inline;fill:#ffffff;fill-opacity:1;stroke:none;stroke-width:0.384409"
       id="path11478"
       inkscape:connector-curvature="0" />
    <path
       d="m 98.434781,161.19783 c 0.103213,0.24273 0.493696,0.39408 0.68444,0.54781 -0.07469,-0.32554 -0.341509,-0.56304 -0.68444,-0.54781"
       style="display:inline;fill:#ffffff;fill-opacity:1;stroke:none;stroke-width:0.384409"
       id="path11952"
       inkscape:connector-curvature="0" />
    <path
       d="m 98.947967,167.36608 c 0.0073,1.52778 0.574576,7.77837 3.386993,6.85836 1.27896,-0.41883 3.1834,-1.296 3.86165,-2.51774 0.55932,-1.00758 0.80807,-2.78523 0.11413,-3.79281 0,0.17943 -0.63162,-1.04137 -0.78477,-1.19938 0.88418,0.63158 -0.20312,-0.6944 -0.3339,-0.90715 -0.41427,-0.67394 -0.42285,-1.4483 -0.76435,-2.14271 -0.26113,0.22084 -0.54744,0.14421 -0.7182,-0.13707 0.84617,0.0671 -1.06873,-2.31499 -1.17194,-2.65244 -0.11083,-0.36362 -2.26213,-2.85329 -2.662112,-2.48776 0.443262,0.10423 0.688242,0.52877 0.994042,0.82243 -0.46563,-0.27129 -1.32225,-1.45211 -1.883487,-0.71963 0.257323,0.38647 0.734836,0.42264 1.060657,0.71963 0.059,-0.42169 1.1753,0.25749 1.4031,0.58303 -0.20593,-0.15611 -1.33556,-0.42121 -1.646158,-0.41121 0.233068,0.32031 0.01115,0.32982 -0.152187,0.55257 -0.226417,0.30746 0.264935,0.80863 -0.0369,1.30504 -0.702969,1.15607 -0.574576,3.19644 -0.628317,4.55051 -0.547437,-0.15992 -0.29538,-0.87336 -0.30868,-1.26792 -0.532214,0.82481 0.186438,1.9866 0.270624,2.84425"
       style="display:inline;fill:#ffffff;fill-opacity:1;stroke:none;stroke-width:0.384409"
       id="path11954"
       inkscape:connector-curvature="0" />
    <path
       d="m 98.914677,158.7648 c 0.06231,0.22988 0.04993,0.32793 0.34247,0.27415 -0.11417,-0.0914 -0.22784,-0.18277 -0.34247,-0.27415"
       style="display:inline;fill:#ffffff;fill-opacity:1;stroke:none;stroke-width:0.384409"
       id="path11956"
       inkscape:connector-curvature="0" />
    <path
       d="m 105.93498,166.92059 c 0.12843,0.30747 0.32391,0.58875 0.37576,0.92524 0,-0.3403 -0.1232,-0.68964 -0.37576,-0.92524"
       style="display:inline;fill:#ffffff;fill-opacity:1;stroke:none;stroke-width:0.384409"
       id="path11958"
       inkscape:connector-curvature="0" />
    <path
       d="m 91.381145,79.36578 c 0.185055,-0.561137 0.6169,-0.845277 0.333436,-1.440207 -0.178365,-0.375522 -0.08657,-0.541148 0.118437,-0.902869 0.251595,-0.444054 -0.09322,-0.770079 0.269663,-1.200333 0.505613,-0.599212 0.975514,-1.790027 1.813603,-1.185102 0.151226,0.108992 0.351965,0.56685 0.595949,0.379327 0.38241,-0.294607 0.464712,-0.865742 0.398094,-1.304564 0.433306,0.166107 0.506574,-0.338872 0.796687,-0.245588 0.508458,0.164204 1.158648,-0.03283 1.529179,0.485467 0.655418,0.916669 2.148885,1.753381 3.140117,2.27216 0.81618,0.427397 1.37884,0.467853 1.96103,1.140365 0.59406,0.685359 0.93461,1.311226 1.75886,0.873358 0.43665,-0.231787 0.90371,-0.07425 1.25329,0.232736 0.39479,0.346487 0.36196,1.068972 0.72961,1.262207 0.68302,0.358384 1.63666,1.282669 2.43142,1.211753 0.40194,-0.03571 0.65734,-0.201322 0.90705,0.13136 0.20593,0.273669 -0.34627,0.496887 0.0775,0.837666 0.32436,0.259864 1.80026,0.753419 1.95245,0.05711 0.22069,0.669179 0.98074,0.967595 1.29134,1.564906 0.40002,0.767699 0.371,-0.719153 0.52557,-0.845277 0.0196,0.420259 1.05924,1.366912 1.3703,0.773411 0.11555,-0.220839 0.0414,-0.641574 0.42712,-0.44977 0.34008,0.168959 0.57503,0.26653 0.94126,0.38409 0.41332,0.13231 0.57265,0.391225 0.92177,0.575414 0.30726,0.161348 0.6811,-0.0633 1.01311,0.09043 0.70582,0.327924 1.57385,-0.424068 2.26733,-0.160871 0.7025,0.26653 0.0946,2.117002 0.16598,2.677189 0.13555,1.073259 1.12536,1.517789 0.87373,2.723357 -0.20451,0.976165 -0.98644,0.507835 -1.88299,0.6173 -0.70251,0.08567 -1.68898,0.293657 -1.81691,-0.685359 -0.63973,0.21465 -0.85281,0.784356 -1.57577,0.350296 -0.34581,-0.207511 -1.91251,-0.758658 -2.2802,-0.61397 -0.74056,0.291278 -0.60975,-0.0771 -1.005,-0.490221 -0.6031,-0.630627 -0.99692,0.16039 -1.67852,0 -0.50273,-0.118514 -0.89321,-0.780551 -1.40548,-0.908105 -0.71818,-0.178954 -0.64353,-0.446437 -0.93649,-1.031373 -0.293,-0.586362 -3.31899,-1.46353 -2.96606,-0.527348 -0.39475,-0.174195 -0.95172,-0.634432 -1.4112,-0.406455 -0.63639,0.31698 -0.78716,0.388373 -1.52818,0.05949 -0.40571,-0.179907 -0.97221,-0.205604 -1.15961,-0.669175 -0.27063,-0.668702 -0.78908,-0.177528 -1.33175,-0.504979 -0.505611,-0.306031 -0.890866,-0.592551 -1.502537,-0.654898 -0.820444,-0.08377 -1.358386,-0.563044 -2.087994,-0.899063 -0.635467,-0.292705 -1.004538,-0.946177 -1.611943,-1.315986 -0.637811,-0.388845 -1.337935,-0.66299 -1.971941,-1.058024 0,0.630627 -0.693473,0.04664 -1.071617,-0.194188 -0.263973,-0.169436 -0.936497,-0.606828 -0.639733,-1.005672"
       style="display:inline;fill:#ffffff;fill-opacity:1;stroke:none;stroke-width:0.384409"
       id="path12276"
       inkscape:connector-curvature="0" />
    <line
       inkscape:r_cy="true"
       inkscape:r_cx="true"
       style="display:inline;fill:none;stroke:#000000;stroke-width:0.237894;stroke-miterlimit:4;stroke-dasharray:none;stroke-opacity:1"
       id="line5642"
       y2="60.449825"
       x2="83.12851"
       y1="60.484104"
       x1="83.12851" />
  </g>
</svg>
